G04*
G04 #@! TF.GenerationSoftware,Altium Limited,Altium Designer,25.8.1 (18)*
G04*
G04 Layer_Color=16711935*
%FSLAX44Y44*%
%MOMM*%
G71*
G04*
G04 #@! TF.SameCoordinates,C16DD730-3532-4E92-A171-7A7C9FC4E97E*
G04*
G04*
G04 #@! TF.FilePolarity,Negative*
G04*
G01*
G75*
%ADD43C,1.5200*%
%ADD44C,0.8032*%
%ADD45C,1.5932*%
%ADD46C,1.5700*%
%ADD47C,1.8532*%
%ADD48R,1.5700X1.5700*%
%ADD49C,1.5732*%
%ADD50R,1.5932X1.5932*%
%ADD51R,1.5200X1.5200*%
%ADD52C,1.7532*%
%ADD53R,1.7532X1.7532*%
%ADD54R,1.5200X1.5200*%
%ADD55R,1.5732X1.5732*%
%ADD56R,1.5700X1.5700*%
%ADD57C,1.0532*%
%ADD58O,1.1032X2.0032*%
%ADD59C,0.7032*%
%ADD60C,0.5000*%
G36*
X619590Y943990D02*
X619870Y943970D01*
X620160Y943930D01*
X620440Y943880D01*
X620720Y943810D01*
X621000Y943730D01*
X621270Y943630D01*
X621540Y943520D01*
X621800Y943400D01*
X622050Y943260D01*
X622300Y943110D01*
X622530Y942950D01*
X622760Y942770D01*
X622980Y942590D01*
X623190Y942390D01*
X623390Y942180D01*
X623570Y941960D01*
X623750Y941730D01*
X623910Y941500D01*
X624060Y941250D01*
X624200Y941000D01*
X624320Y940740D01*
X624430Y940470D01*
X624530Y940200D01*
X624610Y939920D01*
X624680Y939640D01*
X624730Y939360D01*
X624770Y939070D01*
X624790Y938790D01*
X624800Y938500D01*
Y933500D01*
X624790Y933210D01*
X624770Y932930D01*
X624730Y932640D01*
X624680Y932360D01*
X624610Y932080D01*
X624530Y931800D01*
X624430Y931530D01*
X624320Y931260D01*
X624200Y931000D01*
X624060Y930750D01*
X623910Y930500D01*
X623750Y930270D01*
X623570Y930040D01*
X623390Y929820D01*
X623190Y929610D01*
X622980Y929410D01*
X622760Y929230D01*
X622530Y929050D01*
X622300Y928890D01*
X622050Y928740D01*
X621800Y928600D01*
X621540Y928480D01*
X621270Y928370D01*
X621000Y928270D01*
X620720Y928190D01*
X620440Y928120D01*
X620160Y928070D01*
X619870Y928030D01*
X619590Y928010D01*
X619300Y928000D01*
X612800D01*
X612510Y928010D01*
X612230Y928030D01*
X611940Y928070D01*
X611660Y928120D01*
X611380Y928190D01*
X611100Y928270D01*
X610830Y928370D01*
X610560Y928480D01*
X610300Y928600D01*
X610050Y928740D01*
X609800Y928890D01*
X609570Y929050D01*
X609340Y929230D01*
X609120Y929410D01*
X608910Y929610D01*
X608710Y929820D01*
X608530Y930040D01*
X608350Y930270D01*
X608190Y930500D01*
X608040Y930750D01*
X607900Y931000D01*
X607780Y931260D01*
X607670Y931530D01*
X607570Y931800D01*
X607490Y932080D01*
X607420Y932360D01*
X607370Y932640D01*
X607330Y932930D01*
X607310Y933210D01*
X607300Y933500D01*
X607310Y933790D01*
X607330Y934070D01*
X607370Y934360D01*
X607420Y934640D01*
X607490Y934920D01*
X607570Y935200D01*
X607670Y935470D01*
X607780Y935740D01*
X607900Y936000D01*
X608040Y936250D01*
X608190Y936500D01*
X608350Y936730D01*
X608530Y936960D01*
X608710Y937180D01*
X608910Y937390D01*
X609120Y937590D01*
X609340Y937770D01*
X609570Y937950D01*
X609800Y938110D01*
X610050Y938260D01*
X610300Y938400D01*
X610560Y938520D01*
X610830Y938630D01*
X611100Y938730D01*
X611380Y938810D01*
X611660Y938880D01*
X611940Y938930D01*
X612230Y938970D01*
X612510Y938990D01*
X612800Y939000D01*
X613800D01*
X613830Y939250D01*
X613880Y939500D01*
X613930Y939750D01*
X614000Y940000D01*
X614080Y940240D01*
X614160Y940480D01*
X614260Y940720D01*
X614370Y940950D01*
X614490Y941170D01*
X614620Y941390D01*
X614760Y941600D01*
X614910Y941810D01*
X615070Y942010D01*
X615240Y942200D01*
X615410Y942390D01*
X615600Y942560D01*
X615790Y942730D01*
X615990Y942890D01*
X616200Y943040D01*
X616410Y943180D01*
X616630Y943310D01*
X616850Y943430D01*
X617080Y943540D01*
X617320Y943640D01*
X617560Y943720D01*
X617800Y943800D01*
X618050Y943870D01*
X618300Y943920D01*
X618550Y943970D01*
X618800Y944000D01*
X619300D01*
X619590Y943990D01*
D02*
G37*
G36*
X533450Y943970D02*
X533700Y943920D01*
X533950Y943870D01*
X534200Y943800D01*
X534440Y943720D01*
X534680Y943640D01*
X534920Y943540D01*
X535150Y943430D01*
X535370Y943310D01*
X535590Y943180D01*
X535800Y943040D01*
X536010Y942890D01*
X536210Y942730D01*
X536400Y942560D01*
X536590Y942390D01*
X536760Y942200D01*
X536930Y942010D01*
X537090Y941810D01*
X537240Y941600D01*
X537380Y941390D01*
X537510Y941170D01*
X537630Y940950D01*
X537740Y940720D01*
X537840Y940480D01*
X537920Y940240D01*
X538000Y940000D01*
X538070Y939750D01*
X538120Y939500D01*
X538170Y939250D01*
X538200Y939000D01*
X539200D01*
X539490Y938990D01*
X539770Y938970D01*
X540060Y938930D01*
X540340Y938880D01*
X540620Y938810D01*
X540900Y938730D01*
X541170Y938630D01*
X541440Y938520D01*
X541700Y938400D01*
X541950Y938260D01*
X542200Y938110D01*
X542430Y937950D01*
X542660Y937770D01*
X542880Y937590D01*
X543090Y937390D01*
X543290Y937180D01*
X543470Y936960D01*
X543650Y936730D01*
X543810Y936500D01*
X543960Y936250D01*
X544100Y936000D01*
X544220Y935740D01*
X544330Y935470D01*
X544430Y935200D01*
X544510Y934920D01*
X544580Y934640D01*
X544630Y934360D01*
X544670Y934070D01*
X544690Y933790D01*
X544700Y933500D01*
X544690Y933210D01*
X544670Y932930D01*
X544630Y932640D01*
X544580Y932360D01*
X544510Y932080D01*
X544430Y931800D01*
X544330Y931530D01*
X544220Y931260D01*
X544100Y931000D01*
X543960Y930750D01*
X543810Y930500D01*
X543650Y930270D01*
X543470Y930040D01*
X543290Y929820D01*
X543090Y929610D01*
X542880Y929410D01*
X542660Y929230D01*
X542430Y929050D01*
X542200Y928890D01*
X541950Y928740D01*
X541930Y928729D01*
X542050Y928720D01*
X542320Y928690D01*
X542590Y928640D01*
X542860Y928570D01*
X543120Y928490D01*
X543380Y928400D01*
X543640Y928300D01*
X543880Y928180D01*
X544120Y928050D01*
X544360Y927900D01*
X544590Y927750D01*
X544800Y927580D01*
X545010Y927400D01*
X545210Y927210D01*
X545400Y927010D01*
X545580Y926800D01*
X545750Y926590D01*
X545900Y926360D01*
X546050Y926120D01*
X546180Y925880D01*
X546300Y925640D01*
X546400Y925380D01*
X546490Y925120D01*
X546570Y924860D01*
X546640Y924590D01*
X546690Y924320D01*
X546720Y924050D01*
X546740Y923770D01*
X546750Y923500D01*
X546740Y923230D01*
X546720Y922950D01*
X546690Y922680D01*
X546640Y922410D01*
X546570Y922140D01*
X546490Y921880D01*
X546400Y921620D01*
X546300Y921360D01*
X546180Y921120D01*
X546050Y920880D01*
X545900Y920640D01*
X545750Y920410D01*
X545580Y920200D01*
X545400Y919990D01*
X545210Y919790D01*
X545010Y919600D01*
X544800Y919420D01*
X544590Y919250D01*
X544360Y919100D01*
X544120Y918950D01*
X543880Y918820D01*
X543640Y918700D01*
X543380Y918600D01*
X543120Y918510D01*
X542860Y918430D01*
X542590Y918360D01*
X542320Y918310D01*
X542050Y918280D01*
X541770Y918260D01*
X541500Y918250D01*
X538500D01*
X538230Y918260D01*
X537950Y918280D01*
X537680Y918310D01*
X537410Y918360D01*
X537140Y918430D01*
X536880Y918510D01*
X536620Y918600D01*
X536360Y918700D01*
X536120Y918820D01*
X535870Y918950D01*
X535640Y919100D01*
X535410Y919250D01*
X535200Y919420D01*
X534990Y919600D01*
X534790Y919790D01*
X534600Y919990D01*
X534420Y920200D01*
X534250Y920410D01*
X534100Y920640D01*
X533950Y920880D01*
X533820Y921120D01*
X533700Y921360D01*
X533600Y921620D01*
X533510Y921880D01*
X533430Y922140D01*
X533360Y922410D01*
X533310Y922680D01*
X533280Y922950D01*
X533260Y923230D01*
X533250Y923500D01*
X533260Y923770D01*
X533280Y924050D01*
X533310Y924320D01*
X533360Y924590D01*
X533430Y924860D01*
X533510Y925120D01*
X533600Y925380D01*
X533700Y925640D01*
X533820Y925880D01*
X533950Y926120D01*
X534100Y926360D01*
X534250Y926590D01*
X534420Y926800D01*
X534600Y927010D01*
X534790Y927210D01*
X534990Y927400D01*
X535200Y927580D01*
X535410Y927750D01*
X535640Y927900D01*
X535793Y928000D01*
X532700D01*
X532410Y928010D01*
X532130Y928030D01*
X531840Y928070D01*
X531560Y928120D01*
X531280Y928190D01*
X531000Y928270D01*
X530730Y928370D01*
X530460Y928480D01*
X530200Y928600D01*
X529950Y928740D01*
X529700Y928890D01*
X529470Y929050D01*
X529240Y929230D01*
X529020Y929410D01*
X528810Y929610D01*
X528610Y929820D01*
X528430Y930040D01*
X528250Y930270D01*
X528090Y930500D01*
X527940Y930750D01*
X527800Y931000D01*
X527680Y931260D01*
X527570Y931530D01*
X527470Y931800D01*
X527390Y932080D01*
X527320Y932360D01*
X527270Y932640D01*
X527230Y932930D01*
X527210Y933210D01*
X527200Y933500D01*
Y938500D01*
X527210Y938790D01*
X527230Y939070D01*
X527270Y939360D01*
X527320Y939640D01*
X527390Y939920D01*
X527470Y940200D01*
X527570Y940470D01*
X527680Y940740D01*
X527800Y941000D01*
X527940Y941250D01*
X528090Y941500D01*
X528250Y941730D01*
X528430Y941960D01*
X528610Y942180D01*
X528810Y942390D01*
X529020Y942590D01*
X529240Y942770D01*
X529470Y942950D01*
X529700Y943110D01*
X529950Y943260D01*
X530200Y943400D01*
X530460Y943520D01*
X530730Y943630D01*
X531000Y943730D01*
X531280Y943810D01*
X531560Y943880D01*
X531840Y943930D01*
X532130Y943970D01*
X532410Y943990D01*
X532700Y944000D01*
X533200D01*
X533450Y943970D01*
D02*
G37*
D43*
X765000Y346250D02*
D03*
X740160Y871980D02*
D03*
Y120900D02*
D03*
X414020Y871980D02*
D03*
Y120900D02*
D03*
X699262Y493750D02*
D03*
X442214D02*
D03*
X699262Y544550D02*
D03*
X442214D02*
D03*
X765000Y806720D02*
D03*
X442214Y519150D02*
D03*
X699262D02*
D03*
X388620Y806720D02*
D03*
X613000Y335000D02*
D03*
X388620Y346250D02*
D03*
D44*
X604000Y930000D02*
D03*
X548000D02*
D03*
X564000D02*
D03*
X588000D02*
D03*
X580000D02*
D03*
X572000D02*
D03*
X584000Y937000D02*
D03*
X592000D02*
D03*
X600000D02*
D03*
X568000D02*
D03*
X560000D02*
D03*
X552000D02*
D03*
D45*
X957500Y533900D02*
D03*
Y508500D02*
D03*
X173250Y508500D02*
D03*
Y533900D02*
D03*
D46*
X512500Y432562D02*
D03*
X614100Y730700D02*
D03*
X588700D02*
D03*
X563300D02*
D03*
X537900D02*
D03*
X563300Y705300D02*
D03*
X588700D02*
D03*
X614100D02*
D03*
X614100Y432562D02*
D03*
X563300Y574294D02*
D03*
Y432562D02*
D03*
X512500Y574294D02*
D03*
X1065020Y921140D02*
D03*
Y895740D02*
D03*
Y819540D02*
D03*
Y692540D02*
D03*
Y743340D02*
D03*
Y616340D02*
D03*
Y844940D02*
D03*
Y641740D02*
D03*
Y768740D02*
D03*
Y565540D02*
D03*
Y870340D02*
D03*
Y794140D02*
D03*
Y667140D02*
D03*
Y590940D02*
D03*
Y717940D02*
D03*
Y540140D02*
D03*
X731010Y947650D02*
D03*
X756410D02*
D03*
X781810D02*
D03*
X807210D02*
D03*
X832610D02*
D03*
X858010D02*
D03*
X883410D02*
D03*
X908810D02*
D03*
X934210D02*
D03*
X959610D02*
D03*
X985010D02*
D03*
X1010410D02*
D03*
X1035810D02*
D03*
X537900Y432562D02*
D03*
X588700D02*
D03*
X537900Y574294D02*
D03*
X588700D02*
D03*
X614100D02*
D03*
X1065020Y105000D02*
D03*
Y130400D02*
D03*
Y155800D02*
D03*
Y181200D02*
D03*
Y206600D02*
D03*
Y232000D02*
D03*
Y257400D02*
D03*
Y282800D02*
D03*
Y308200D02*
D03*
Y333600D02*
D03*
Y359000D02*
D03*
Y384400D02*
D03*
Y409800D02*
D03*
Y435200D02*
D03*
Y460600D02*
D03*
Y486000D02*
D03*
X731010Y78700D02*
D03*
X756410D02*
D03*
X781810D02*
D03*
X807210D02*
D03*
X832610D02*
D03*
X858010D02*
D03*
X883410Y78700D02*
D03*
X908810Y78700D02*
D03*
X934210D02*
D03*
X959610D02*
D03*
X985010D02*
D03*
X1010410D02*
D03*
X1035810D02*
D03*
X84270Y486000D02*
D03*
Y460600D02*
D03*
Y435200D02*
D03*
Y409800D02*
D03*
Y384400D02*
D03*
Y359000D02*
D03*
Y333600D02*
D03*
Y308200D02*
D03*
Y282800D02*
D03*
Y257400D02*
D03*
Y232000D02*
D03*
Y206600D02*
D03*
Y181200D02*
D03*
Y155800D02*
D03*
Y130400D02*
D03*
Y105000D02*
D03*
X84270Y540140D02*
D03*
Y743340D02*
D03*
Y565540D02*
D03*
X115060Y947650D02*
D03*
X140460D02*
D03*
X165860D02*
D03*
X191260D02*
D03*
X216660D02*
D03*
X242060D02*
D03*
X267460D02*
D03*
X292860D02*
D03*
X318260D02*
D03*
X343660D02*
D03*
X369060D02*
D03*
X394460D02*
D03*
X419860D02*
D03*
X84270Y590940D02*
D03*
Y616340D02*
D03*
Y641740D02*
D03*
Y667140D02*
D03*
Y692540D02*
D03*
Y717940D02*
D03*
Y768740D02*
D03*
Y794140D02*
D03*
Y819540D02*
D03*
Y844940D02*
D03*
Y870340D02*
D03*
Y895740D02*
D03*
Y921140D02*
D03*
X419860Y78700D02*
D03*
X394460D02*
D03*
X369060D02*
D03*
X343660D02*
D03*
X318260D02*
D03*
X292860D02*
D03*
X267460D02*
D03*
X242060D02*
D03*
X216660D02*
D03*
X191260D02*
D03*
X165860D02*
D03*
X140460D02*
D03*
X115060D02*
D03*
D47*
X537900Y116250D02*
D03*
X588700D02*
D03*
X563300D02*
D03*
X614100D02*
D03*
D48*
X537900Y705300D02*
D03*
X639500Y574294D02*
D03*
X705610Y947650D02*
D03*
X639500Y432562D02*
D03*
X705610Y78700D02*
D03*
X445260Y947650D02*
D03*
X445260Y78700D02*
D03*
D49*
X414020Y306700D02*
D03*
X414020Y768600D02*
D03*
X739600Y306700D02*
D03*
X738756Y768600D02*
D03*
X764156D02*
D03*
X738756Y743200D02*
D03*
X739600Y281300D02*
D03*
X765000Y306700D02*
D03*
X388620Y743200D02*
D03*
Y768600D02*
D03*
X388620Y306700D02*
D03*
Y281300D02*
D03*
D50*
X957500Y483100D02*
D03*
X173250Y483100D02*
D03*
D51*
X414020Y346250D02*
D03*
X638400Y335000D02*
D03*
X414020Y806720D02*
D03*
X739600Y346250D02*
D03*
X739600Y806720D02*
D03*
D52*
X414020Y211000D02*
D03*
X414150Y677500D02*
D03*
X739600Y210764D02*
D03*
X739600Y677500D02*
D03*
X739600Y185364D02*
D03*
X739600Y652100D02*
D03*
Y702900D02*
D03*
X765000D02*
D03*
Y677500D02*
D03*
X739600Y236164D02*
D03*
X414150Y702900D02*
D03*
X414020Y236400D02*
D03*
X765000Y210764D02*
D03*
Y236164D02*
D03*
X388620Y211000D02*
D03*
Y185600D02*
D03*
X388750Y652100D02*
D03*
Y677500D02*
D03*
Y702900D02*
D03*
X388620Y236400D02*
D03*
D53*
X414020Y185600D02*
D03*
X414150Y652100D02*
D03*
X765000Y652100D02*
D03*
X765000Y185364D02*
D03*
D54*
X740160Y846580D02*
D03*
X414020D02*
D03*
Y146300D02*
D03*
X740160D02*
D03*
X442214Y468350D02*
D03*
X699262D02*
D03*
D55*
X764156Y743200D02*
D03*
X414020Y743200D02*
D03*
X414020Y281300D02*
D03*
X765000Y281300D02*
D03*
D56*
X1065020Y946540D02*
D03*
X1065020Y79600D02*
D03*
X84270Y79600D02*
D03*
X84270Y946540D02*
D03*
D57*
X612000Y923500D02*
D03*
X540000D02*
D03*
D58*
X619300Y995500D02*
D03*
X532700D02*
D03*
D59*
X900706Y696000D02*
D03*
X284250Y826250D02*
D03*
X179701Y836612D02*
D03*
X644250Y757750D02*
D03*
X546000Y817500D02*
D03*
X934500Y695500D02*
D03*
X509500Y729750D02*
D03*
X670500Y538936D02*
D03*
X577277Y898079D02*
D03*
X649000Y298250D02*
D03*
X556268Y219000D02*
D03*
X327250Y248500D02*
D03*
X290000Y284750D02*
D03*
X144250Y172750D02*
D03*
X321250Y156250D02*
D03*
X304250Y205500D02*
D03*
X295000Y316250D02*
D03*
X176000Y396000D02*
D03*
X180000Y154750D02*
D03*
X143000Y202750D02*
D03*
X864750Y144500D02*
D03*
X902500Y325000D02*
D03*
X908000Y283750D02*
D03*
X853750Y278190D02*
D03*
X807750Y334500D02*
D03*
X849250Y186250D02*
D03*
X972750Y389250D02*
D03*
X972500Y197000D02*
D03*
X859500Y389750D02*
D03*
X912125Y396000D02*
D03*
X1005332Y171450D02*
D03*
X969518Y867918D02*
D03*
X1016508Y830834D02*
D03*
X857758Y653796D02*
D03*
X627126Y898906D02*
D03*
X836930Y859536D02*
D03*
X776310Y836000D02*
D03*
X969518Y644906D02*
D03*
X912500Y610000D02*
D03*
X1005840Y150754D02*
D03*
X823250Y231750D02*
D03*
X531622Y899668D02*
D03*
X547370Y874014D02*
D03*
X269690Y864921D02*
D03*
X361188Y820166D02*
D03*
X150114Y866394D02*
D03*
X308864Y784352D02*
D03*
X307594Y732536D02*
D03*
X259080Y628650D02*
D03*
X231000Y395750D02*
D03*
X821944Y868934D02*
D03*
X538480Y864870D02*
D03*
X611564Y807906D02*
D03*
X578659Y808228D02*
D03*
X302541Y508708D02*
D03*
X555941Y925765D02*
D03*
X488535Y821286D02*
D03*
X493000Y748000D02*
D03*
X488000Y703000D02*
D03*
X510000Y299000D02*
D03*
X302000Y533000D02*
D03*
X299720Y799338D02*
D03*
X359000Y111000D02*
D03*
X174000Y312000D02*
D03*
X212000Y260000D02*
D03*
X222000Y268000D02*
D03*
X236000Y273000D02*
D03*
X290000Y239000D02*
D03*
X291000Y211000D02*
D03*
X301000Y483000D02*
D03*
X478790Y527050D02*
D03*
X481140Y499712D02*
D03*
X182118Y615188D02*
D03*
X213868Y741172D02*
D03*
X214630Y768858D02*
D03*
X239522Y735838D02*
D03*
X281940Y723392D02*
D03*
X292100Y792226D02*
D03*
X293116Y770128D02*
D03*
X174017Y826222D02*
D03*
X576000Y606000D02*
D03*
X922000Y264000D02*
D03*
X935000Y273000D02*
D03*
X860000Y611000D02*
D03*
X862000Y817393D02*
D03*
X932389Y740991D02*
D03*
X934000Y753000D02*
D03*
X936000Y623000D02*
D03*
X1005000Y652000D02*
D03*
X1009000Y853000D02*
D03*
D60*
X580750Y286826D02*
D03*
X591750D02*
D03*
Y273826D02*
D03*
Y260826D02*
D03*
X580750D02*
D03*
Y273826D02*
D03*
M02*
