G04*
G04 #@! TF.GenerationSoftware,Altium Limited,Altium Designer,25.8.1 (18)*
G04*
G04 Layer_Physical_Order=1*
G04 Layer_Color=255*
%FSLAX44Y44*%
%MOMM*%
G71*
G04*
G04 #@! TF.SameCoordinates,C16DD730-3532-4E92-A171-7A7C9FC4E97E*
G04*
G04*
G04 #@! TF.FilePolarity,Positive*
G04*
G01*
G75*
%ADD15C,0.2540*%
%ADD21R,1.3500X0.8500*%
%ADD22R,0.8000X0.8000*%
%ADD23R,1.4750X0.4500*%
%ADD24R,1.3082X1.0057*%
%ADD25R,1.2000X0.6000*%
%ADD26R,2.0000X1.4000*%
%ADD27R,0.3200X0.7000*%
G04:AMPARAMS|DCode=28|XSize=2mm|YSize=0.4mm|CornerRadius=0.2mm|HoleSize=0mm|Usage=FLASHONLY|Rotation=90.000|XOffset=0mm|YOffset=0mm|HoleType=Round|Shape=RoundedRectangle|*
%AMROUNDEDRECTD28*
21,1,2.0000,0.0000,0,0,90.0*
21,1,1.6000,0.4000,0,0,90.0*
1,1,0.4000,0.0000,0.8000*
1,1,0.4000,0.0000,-0.8000*
1,1,0.4000,0.0000,-0.8000*
1,1,0.4000,0.0000,0.8000*
%
%ADD28ROUNDEDRECTD28*%
%ADD29R,1.0057X1.3082*%
G04:AMPARAMS|DCode=30|XSize=1.45mm|YSize=0.3mm|CornerRadius=0.0495mm|HoleSize=0mm|Usage=FLASHONLY|Rotation=0.000|XOffset=0mm|YOffset=0mm|HoleType=Round|Shape=RoundedRectangle|*
%AMROUNDEDRECTD30*
21,1,1.4500,0.2010,0,0,0.0*
21,1,1.3510,0.3000,0,0,0.0*
1,1,0.0990,0.6755,-0.1005*
1,1,0.0990,-0.6755,-0.1005*
1,1,0.0990,-0.6755,0.1005*
1,1,0.0990,0.6755,0.1005*
%
%ADD30ROUNDEDRECTD30*%
%ADD31R,1.7780X0.5334*%
%ADD32R,0.8500X1.3500*%
%ADD33R,0.4000X2.0000*%
%ADD34R,1.2000X0.9200*%
%ADD43C,1.5200*%
%ADD46C,1.5700*%
%ADD48R,1.5700X1.5700*%
%ADD51R,1.5200X1.5200*%
%ADD54R,1.5200X1.5200*%
%ADD56R,1.5700X1.5700*%
%ADD60C,0.5000*%
%ADD61C,0.2540*%
%ADD62R,2.2000X3.1000*%
%ADD63C,0.3810*%
%ADD64C,0.6000*%
%ADD65C,1.3900*%
%ADD66C,1.6500*%
%ADD67C,1.3700*%
%ADD68R,1.3900X1.3900*%
%ADD69C,1.5500*%
%ADD70R,1.5500X1.5500*%
%ADD71R,1.3700X1.3700*%
%ADD72C,0.9000*%
%ADD73C,0.8500*%
%ADD74O,0.9000X1.8000*%
G36*
X532460Y929010D02*
X532230Y929020D01*
X532000Y929060D01*
X531760Y929100D01*
X531540Y929150D01*
X531310Y929220D01*
X531090Y929300D01*
X530870Y929390D01*
X530660Y929490D01*
X530450Y929600D01*
X530250Y929730D01*
X530050Y929860D01*
X529870Y930000D01*
X529690Y930160D01*
X529520Y930320D01*
X529360Y930490D01*
X529200Y930670D01*
X529060Y930850D01*
X528930Y931050D01*
X528800Y931250D01*
X528690Y931460D01*
X528590Y931670D01*
X528500Y931890D01*
X528420Y932110D01*
X528350Y932340D01*
X528300Y932560D01*
X528260Y932800D01*
X528220Y933030D01*
X528210Y933260D01*
X528200Y933500D01*
Y938500D01*
X528210Y938740D01*
X528220Y938970D01*
X528260Y939200D01*
X528300Y939440D01*
X528350Y939660D01*
X528420Y939890D01*
X528500Y940110D01*
X528590Y940330D01*
X528690Y940540D01*
X528800Y940750D01*
X528930Y940950D01*
X529060Y941150D01*
X529200Y941330D01*
X529360Y941510D01*
X529520Y941680D01*
X529690Y941840D01*
X529870Y942000D01*
X530050Y942140D01*
X530250Y942270D01*
X530450Y942400D01*
X530660Y942510D01*
X530870Y942610D01*
X531090Y942700D01*
X531310Y942780D01*
X531540Y942850D01*
X531760Y942900D01*
X532000Y942940D01*
X532230Y942980D01*
X532460Y942990D01*
X532700Y943000D01*
X532940Y942990D01*
X533170Y942980D01*
X533400Y942940D01*
X533640Y942900D01*
X533860Y942850D01*
X534090Y942780D01*
X534310Y942700D01*
X534530Y942610D01*
X534740Y942510D01*
X534950Y942400D01*
X535150Y942270D01*
X535350Y942140D01*
X535530Y942000D01*
X535710Y941840D01*
X535880Y941680D01*
X536040Y941510D01*
X536200Y941330D01*
X536340Y941150D01*
X536470Y940950D01*
X536600Y940750D01*
X536710Y940540D01*
X536810Y940330D01*
X536900Y940110D01*
X536980Y939890D01*
X537050Y939660D01*
X537100Y939440D01*
X537140Y939200D01*
X537180Y938970D01*
X537190Y938740D01*
X537200Y938500D01*
Y938000D01*
X539200D01*
X539440Y937990D01*
X539670Y937980D01*
X539900Y937940D01*
X540140Y937900D01*
X540360Y937850D01*
X540590Y937780D01*
X540810Y937700D01*
X541030Y937610D01*
X541240Y937510D01*
X541450Y937400D01*
X541650Y937270D01*
X541850Y937140D01*
X542030Y937000D01*
X542210Y936840D01*
X542380Y936680D01*
X542540Y936510D01*
X542700Y936330D01*
X542840Y936150D01*
X542970Y935950D01*
X543100Y935750D01*
X543210Y935540D01*
X543310Y935330D01*
X543400Y935110D01*
X543480Y934890D01*
X543550Y934660D01*
X543600Y934440D01*
X543640Y934200D01*
X543680Y933970D01*
X543690Y933740D01*
X543700Y933500D01*
X543690Y933260D01*
X543680Y933030D01*
X543640Y932800D01*
X543600Y932560D01*
X543550Y932340D01*
X543480Y932110D01*
X543400Y931890D01*
X543310Y931670D01*
X543210Y931460D01*
X543100Y931250D01*
X542970Y931050D01*
X542840Y930850D01*
X542700Y930670D01*
X542540Y930490D01*
X542380Y930320D01*
X542210Y930160D01*
X542030Y930000D01*
X541850Y929860D01*
X541650Y929730D01*
X541450Y929600D01*
X541240Y929490D01*
X541030Y929390D01*
X540810Y929300D01*
X540590Y929220D01*
X540360Y929150D01*
X540140Y929100D01*
X539900Y929060D01*
X539670Y929020D01*
X539440Y929010D01*
X539200Y929000D01*
X532700D01*
X532460Y929010D01*
D02*
G37*
G36*
X612560D02*
X612330Y929020D01*
X612100Y929060D01*
X611860Y929100D01*
X611640Y929150D01*
X611410Y929220D01*
X611190Y929300D01*
X610970Y929390D01*
X610760Y929490D01*
X610550Y929600D01*
X610350Y929730D01*
X610150Y929860D01*
X609970Y930000D01*
X609790Y930160D01*
X609620Y930320D01*
X609460Y930490D01*
X609300Y930670D01*
X609160Y930850D01*
X609030Y931050D01*
X608900Y931250D01*
X608790Y931460D01*
X608690Y931670D01*
X608600Y931890D01*
X608520Y932110D01*
X608450Y932340D01*
X608400Y932560D01*
X608360Y932800D01*
X608320Y933030D01*
X608310Y933260D01*
X608300Y933500D01*
X608310Y933740D01*
X608320Y933970D01*
X608360Y934200D01*
X608400Y934440D01*
X608450Y934660D01*
X608520Y934890D01*
X608600Y935110D01*
X608690Y935330D01*
X608790Y935540D01*
X608900Y935750D01*
X609030Y935950D01*
X609160Y936150D01*
X609300Y936330D01*
X609460Y936510D01*
X609620Y936680D01*
X609790Y936840D01*
X609970Y937000D01*
X610150Y937140D01*
X610350Y937270D01*
X610550Y937400D01*
X610760Y937510D01*
X610970Y937610D01*
X611190Y937700D01*
X611410Y937780D01*
X611640Y937850D01*
X611860Y937900D01*
X612100Y937940D01*
X612330Y937980D01*
X612560Y937990D01*
X612800Y938000D01*
X614800D01*
Y938500D01*
X614810Y938740D01*
X614820Y938970D01*
X614860Y939200D01*
X614900Y939440D01*
X614950Y939660D01*
X615020Y939890D01*
X615100Y940110D01*
X615190Y940330D01*
X615290Y940540D01*
X615400Y940750D01*
X615530Y940950D01*
X615660Y941150D01*
X615800Y941330D01*
X615960Y941510D01*
X616120Y941680D01*
X616290Y941840D01*
X616470Y942000D01*
X616650Y942140D01*
X616850Y942270D01*
X617050Y942400D01*
X617260Y942510D01*
X617470Y942610D01*
X617690Y942700D01*
X617910Y942780D01*
X618140Y942850D01*
X618360Y942900D01*
X618600Y942940D01*
X618830Y942980D01*
X619060Y942990D01*
X619300Y943000D01*
X619540Y942990D01*
X619770Y942980D01*
X620000Y942940D01*
X620240Y942900D01*
X620460Y942850D01*
X620690Y942780D01*
X620910Y942700D01*
X621130Y942610D01*
X621340Y942510D01*
X621550Y942400D01*
X621750Y942270D01*
X621950Y942140D01*
X622130Y942000D01*
X622310Y941840D01*
X622480Y941680D01*
X622640Y941510D01*
X622800Y941330D01*
X622940Y941150D01*
X623070Y940950D01*
X623200Y940750D01*
X623310Y940540D01*
X623410Y940330D01*
X623500Y940110D01*
X623580Y939890D01*
X623650Y939660D01*
X623700Y939440D01*
X623740Y939200D01*
X623780Y938970D01*
X623790Y938740D01*
X623800Y938500D01*
Y933500D01*
X623790Y933260D01*
X623780Y933030D01*
X623740Y932800D01*
X623700Y932560D01*
X623650Y932340D01*
X623580Y932110D01*
X623500Y931890D01*
X623410Y931670D01*
X623310Y931460D01*
X623200Y931250D01*
X623070Y931050D01*
X622940Y930850D01*
X622800Y930670D01*
X622640Y930490D01*
X622480Y930320D01*
X622310Y930160D01*
X622130Y930000D01*
X621950Y929860D01*
X621750Y929730D01*
X621550Y929600D01*
X621340Y929490D01*
X621130Y929390D01*
X620910Y929300D01*
X620690Y929220D01*
X620460Y929150D01*
X620240Y929100D01*
X620000Y929060D01*
X619770Y929020D01*
X619540Y929010D01*
X619300Y929000D01*
X612800D01*
X612560Y929010D01*
D02*
G37*
D15*
X723853Y96573D02*
G03*
X705750Y78570I232471J-251866D01*
G01*
X859945Y90199D02*
G03*
X846427Y80036I-1935J-11498D01*
G01*
X94910Y875116D02*
G03*
X89045Y880981I-10638J-4773D01*
G01*
X604000Y920288D02*
Y930000D01*
X882350Y696000D02*
X900706D01*
X882220Y695870D02*
X882350Y696000D01*
X185392Y846700D02*
X192954D01*
X193932Y845722D01*
X170679Y861413D02*
X185392Y846700D01*
X614100Y705300D02*
X677400Y768600D01*
X738756D01*
X588594Y916900D02*
Y929406D01*
X588000Y930000D02*
X588594Y929406D01*
X563500Y929500D02*
X564000Y930000D01*
X563500Y916900D02*
Y929500D01*
X934500Y695500D02*
X951850D01*
X952220Y695870D01*
X922000Y663000D02*
X994060Y590940D01*
X896220Y747780D02*
X922000Y722000D01*
Y663000D02*
Y722000D01*
X912750Y665066D02*
X1023816Y554000D01*
X912750Y665066D02*
Y720250D01*
X891720Y741280D02*
X912750Y720250D01*
X886760Y734240D02*
X906000Y715000D01*
Y664632D02*
Y715000D01*
X879340Y735220D02*
X880320Y734240D01*
X886760D01*
X906000Y664632D02*
X1030492Y540140D01*
X874215Y735220D02*
X879340D01*
X193864Y832654D02*
X193930Y832720D01*
X509168Y730082D02*
Y738418D01*
Y730082D02*
X509500Y729750D01*
X509168Y738418D02*
X533750Y763000D01*
Y771000D01*
X555750Y450412D02*
Y492500D01*
X538898Y499229D02*
X549021D01*
X538027Y500100D02*
X538898Y499229D01*
X549021D02*
X555750Y492500D01*
X537900Y432562D02*
X555750Y450412D01*
X563300Y432562D02*
Y506450D01*
X544250Y525500D02*
X563300Y506450D01*
X511906Y500100D02*
X538027D01*
X511170Y499364D02*
X511906Y500100D01*
X580750Y238214D02*
Y260826D01*
X577277Y898079D02*
Y898745D01*
X577928Y898079D02*
X579995Y896012D01*
X577277Y898079D02*
X577928D01*
X421894Y441290D02*
Y501396D01*
Y441290D02*
X447132Y416052D01*
X572190D01*
X595000Y283576D02*
X608250D01*
X591750Y286826D02*
X595000Y283576D01*
X575127Y309484D02*
X578885Y305725D01*
Y288056D02*
Y305725D01*
Y288056D02*
X580115Y286826D01*
X580750D01*
X556268Y219000D02*
X561536D01*
X538146Y231854D02*
Y249418D01*
X551000Y219000D02*
X556268D01*
X538146Y231854D02*
X551000Y219000D01*
X561536D02*
X580750Y238214D01*
X386140Y188080D02*
Y188944D01*
X327250Y247834D02*
X386140Y188944D01*
X327250Y247834D02*
Y248500D01*
X386140Y188080D02*
X388620Y185600D01*
X289875Y284625D02*
X290000Y284750D01*
X269815Y284625D02*
X289875D01*
X269690Y284500D02*
X269815Y284625D01*
X264565Y284500D02*
X269690D01*
X337444Y182999D02*
X344749D01*
X333250Y178805D02*
X337444Y182999D01*
X333250Y168250D02*
Y178805D01*
X344749Y182999D02*
X345750Y184000D01*
X321250Y156250D02*
X333250Y168250D01*
X303118Y149085D02*
X356121D01*
X405384Y99822D01*
X278643Y173560D02*
X303118Y149085D01*
X269810Y325000D02*
X286250D01*
X295000Y316250D01*
X266810Y325000D02*
X269810D01*
X196090Y396000D02*
X196340Y395750D01*
X176000Y396000D02*
X196090D01*
X266700Y412000D02*
X266950Y412250D01*
X247650Y412000D02*
X266700D01*
X215400Y412250D02*
X215650Y412000D01*
X196340Y412250D02*
X215400D01*
X180000Y154750D02*
Y158695D01*
X188805Y167500D01*
X193930D01*
X143000Y202750D02*
X143012Y202762D01*
X86788Y163538D02*
X137351Y214101D01*
X171119D01*
X84270Y155800D02*
X86788Y158318D01*
Y163538D01*
X173223Y219181D02*
X179404Y213000D01*
X156557Y257400D02*
X181457Y232500D01*
X171119Y214101D02*
X178720Y206500D01*
X180089Y219500D02*
X193930D01*
X175327Y224261D02*
X180089Y219500D01*
X181457Y232500D02*
X193930D01*
X179404Y213000D02*
X193930D01*
X178720Y206500D02*
X193930D01*
X174772Y232000D02*
X180772Y226000D01*
X122251Y219181D02*
X173223D01*
X180772Y226000D02*
X193930D01*
X182141Y239000D02*
X193930D01*
X138341Y282800D02*
X182141Y239000D01*
X101931Y224261D02*
X175327D01*
X120125Y308200D02*
X182745Y245580D01*
X193850D01*
X193930Y245500D01*
X84270Y206600D02*
X101931Y224261D01*
X84270Y181200D02*
X122251Y219181D01*
X124910Y120240D02*
X128985D01*
X182745Y174000D02*
X193930D01*
X101404Y105000D02*
X121724Y125320D01*
X84270Y79600D02*
X124910Y120240D01*
X121724Y125320D02*
X126754D01*
X124650Y130400D02*
X181250Y187000D01*
X84270Y79600D02*
Y79600D01*
X128985Y120240D02*
X182745Y174000D01*
X181250Y187000D02*
X193930D01*
X84270Y130400D02*
X124650D01*
X126754Y125320D02*
X181934Y180500D01*
X193930D01*
X84270Y105000D02*
X101404D01*
X1005000Y412000D02*
X1053600Y460600D01*
X1013000Y327387D02*
Y402000D01*
X960225Y284500D02*
X1005000Y329275D01*
X1013000Y402000D02*
X1046200Y435200D01*
X964053Y278440D02*
X1013000Y327387D01*
X1053600Y460600D02*
X1065020D01*
X1005000Y329275D02*
Y412000D01*
X908000Y283500D02*
Y283750D01*
X896000Y271500D02*
X908000Y283500D01*
X879340Y271500D02*
X896000D01*
X889750Y284500D02*
X902250Y297000D01*
X838736Y284500D02*
X889750D01*
X902250Y297000D02*
X961000D01*
X765000Y210764D02*
X838736Y284500D01*
X853750Y278190D02*
X853845Y278095D01*
X879245D02*
X879340Y278000D01*
X853845Y278095D02*
X879245D01*
X778000Y326000D02*
X935100Y483100D01*
X957500D01*
X758900Y326000D02*
X778000D01*
X823966Y175250D02*
X857708D01*
X869018Y186560D01*
X751332Y102616D02*
X823966Y175250D01*
X740887Y80233D02*
X829904Y169250D01*
X858893D02*
X869703Y180060D01*
X829904Y169250D02*
X858893D01*
X756410Y78700D02*
X840210Y162500D01*
X859327D02*
X870387Y173560D01*
X840210Y162500D02*
X859327D01*
X869018Y186560D02*
X878900D01*
X879340Y187000D01*
X869703Y180060D02*
X878900D01*
X879340Y180500D01*
X870387Y173560D02*
X878900D01*
X879340Y174000D01*
X966250Y395750D02*
X972750Y389250D01*
X942000Y395750D02*
X966250D01*
X971834Y197000D02*
X972500D01*
X968334Y193500D02*
X971834Y197000D01*
X955100Y193500D02*
X968334D01*
X955540Y200440D02*
X965422D01*
X955540Y206940D02*
X964690D01*
X967090Y209340D01*
X965422Y200440D02*
X969241Y204260D01*
X967090Y209340D02*
X992660D01*
X965033Y214420D02*
X999580D01*
X955540Y213440D02*
X964053D01*
X965033Y214420D01*
X969241Y204260D02*
X984740D01*
X1056105Y132895D01*
X992660Y209340D02*
X1046200Y155800D01*
X1008500Y219500D02*
X1021400Y206600D01*
X955100Y219500D02*
X1008500D01*
X999580Y214420D02*
X1032800Y181200D01*
X955100Y200000D02*
X955540Y200440D01*
X955100Y213000D02*
X955540Y213440D01*
X955100Y206500D02*
X955540Y206940D01*
X966285Y168715D02*
Y171328D01*
X964053Y173560D02*
X966285Y171328D01*
X955540Y173560D02*
X964053D01*
X966285Y168715D02*
X1048820Y86180D01*
X955100Y174000D02*
X955540Y173560D01*
X941500Y412750D02*
X942000Y412250D01*
X925000Y412750D02*
X941500D01*
X899750Y412250D02*
X900000Y412000D01*
X883000Y412250D02*
X899750D01*
X818250Y226750D02*
X823250Y231750D01*
X818250Y213750D02*
Y226750D01*
X815230Y210730D02*
X818250Y213750D01*
X807230Y210730D02*
X815230D01*
X608250Y283576D02*
X627958D01*
X630856Y280679D01*
X805500Y209000D02*
X807230Y210730D01*
X548000Y930000D02*
X548090Y929910D01*
Y917702D02*
Y929910D01*
X531622Y899668D02*
Y900022D01*
X548500Y916900D01*
X307744Y732686D02*
Y748538D01*
X307594Y732536D02*
X307744Y732686D01*
X1065020Y867662D02*
Y870340D01*
X980823Y809899D02*
X1007257D01*
X1065020Y867662D01*
X833976Y875244D02*
X863500Y845720D01*
X705612Y936388D02*
X766756Y875244D01*
X833976D01*
X524256Y880486D02*
X529263D01*
X592565Y697755D02*
Y697874D01*
X601458Y718058D02*
X614100Y730700D01*
X581107Y797007D02*
X605250Y821150D01*
X604971Y841280D02*
X605250Y841000D01*
Y821150D02*
Y841000D01*
X611564Y807906D02*
Y840814D01*
X611750Y841000D01*
X615696Y864494D02*
X618250Y861940D01*
Y841000D02*
Y861940D01*
X523748Y728362D02*
X534052Y718058D01*
X523748Y728362D02*
Y737870D01*
X604971Y841280D02*
Y854279D01*
X593000Y864738D02*
X594512D01*
X604971Y854279D01*
X613196Y880994D02*
X615696D01*
X529263Y880486D02*
X544282D01*
X534052Y718058D02*
X601458D01*
X588700Y701739D02*
Y705300D01*
Y701739D02*
X592565Y697874D01*
X559750Y771000D02*
X560029Y770721D01*
Y759371D02*
Y770721D01*
X523748Y737870D02*
X540250Y754372D01*
Y771000D01*
X537900Y730700D02*
X553250Y746050D01*
Y771000D01*
X553529Y771279D01*
X560029Y759371D02*
X563300Y756100D01*
X569540Y797007D02*
X581107D01*
X541528Y808228D02*
X578659D01*
X553529Y780996D02*
X569540Y797007D01*
X518922Y830834D02*
Y862763D01*
X553529Y771279D02*
Y780996D01*
X518922Y830834D02*
X541528Y808228D01*
X563300Y730700D02*
Y756100D01*
X589000Y116250D02*
Y156100D01*
X739600Y306700D01*
X758900Y326000D01*
X414020Y211000D02*
X435000D01*
X302541Y508708D02*
X475000Y336249D01*
X173250Y508500D02*
X214750Y550000D01*
X337000D01*
X443000Y656000D01*
X435000Y211000D02*
X475000Y251000D01*
X443000Y656000D02*
Y670000D01*
X475000Y251000D02*
Y336249D01*
X414150Y677500D02*
X435500D01*
X443000Y670000D01*
X612820Y677500D02*
X739600D01*
X592565Y697755D02*
X612820Y677500D01*
X563064Y930000D02*
X564000D01*
X555941Y925765D02*
X556412Y926236D01*
X559300D01*
X563064Y930000D01*
X573500Y921869D02*
X578810Y927179D01*
Y927874D01*
X580000Y929063D02*
Y930000D01*
X578810Y927874D02*
X580000Y929063D01*
X573500Y909704D02*
Y921869D01*
X544282Y880486D02*
X573500Y909704D01*
X577277Y898745D02*
X578580Y900048D01*
X598178Y896012D02*
X613196Y880994D01*
X578104Y908304D02*
Y916504D01*
X578500Y916900D01*
X578580Y900048D02*
Y908304D01*
X579995Y896012D02*
X598178D01*
X303896Y531770D02*
X304230D01*
X302216Y533450D02*
X303896Y531770D01*
X304230D02*
X490000Y346000D01*
X173250Y533900D02*
X196350Y557000D01*
X301550Y533450D02*
X302216D01*
X196350Y557000D02*
X319050D01*
X414150Y652100D01*
X414020Y185600D02*
X439600D01*
X490000Y236000D01*
Y346000D01*
X616500Y652100D02*
X739600D01*
X563300Y705300D02*
X616500Y652100D01*
X293850Y799809D02*
X299249D01*
X280877Y812782D02*
X293850Y799809D01*
X299249D02*
X299720Y799338D01*
X270133Y812782D02*
X280877D01*
X269692Y813222D02*
X270133Y812782D01*
X90855Y939960D02*
X169402Y861413D01*
X84272Y946538D02*
X90850Y939960D01*
X90855D01*
X169402Y861413D02*
X170679D01*
X675288Y468350D02*
X699262D01*
X639500Y432562D02*
X675288Y468350D01*
X538654Y281068D02*
X540054D01*
X544046Y277076D01*
X564250D01*
X577751Y335000D02*
X613000D01*
X560602Y309484D02*
X561098Y309981D01*
Y318347D01*
X577751Y335000D01*
X560602Y307972D02*
Y309484D01*
X540054Y297768D02*
X550398D01*
X515794Y266944D02*
X537120D01*
X538146Y265918D01*
X540646D01*
X545304Y270576D01*
X564250D01*
X563678Y240142D02*
X564250Y240714D01*
Y264076D01*
X550398Y297768D02*
X560602Y307972D01*
X538654Y297768D02*
X540054D01*
X543384Y294438D01*
Y293382D02*
Y294438D01*
Y293382D02*
X553190Y283576D01*
X564250D01*
X563300Y593300D02*
X576000Y606000D01*
X563300Y574294D02*
Y593300D01*
X531042Y542036D02*
X563300Y574294D01*
X683540Y478028D02*
X699262Y493750D01*
X659566Y478028D02*
X683540D01*
X614100Y432562D02*
X659566Y478028D01*
X461264Y525526D02*
X477774Y542036D01*
X531042D01*
X442214Y493750D02*
X461264Y512800D01*
X538027D01*
X461264D02*
Y525526D01*
X538027Y525500D02*
X544250D01*
X511170Y526542D02*
X512212Y525500D01*
X538027D01*
X405384Y99822D02*
X424138D01*
X445260Y78700D01*
X729896Y102616D02*
X751332D01*
X723853Y96573D02*
X729896Y102616D01*
X732543Y80233D02*
X740887D01*
X731010Y78700D02*
X732543Y80233D01*
X418071Y80489D02*
X419860Y78700D01*
X356728Y134000D02*
X410239Y80489D01*
X308315Y134000D02*
X356728D01*
X410239Y80489D02*
X418071D01*
X731012Y947650D02*
X797662Y881000D01*
X705612Y936388D02*
Y947650D01*
X1044125Y926220D02*
X1044702D01*
X1046229Y921140D02*
X1065022D01*
X1039811Y693189D02*
X1065022Y667978D01*
X943915Y856048D02*
X1035517Y947650D01*
X938835Y861019D02*
X1010412Y932596D01*
X933755Y871755D02*
X985012Y923012D01*
Y947650D01*
X1035517D02*
X1035812D01*
X1010412Y932596D02*
Y947650D01*
X1008742Y774220D02*
X1065022Y717940D01*
X955100Y735220D02*
X973780D01*
X955100Y780720D02*
X1027642D01*
X955100Y787220D02*
X1046542D01*
X955100Y767720D02*
X989842D01*
X1027642Y780720D02*
X1065022Y743340D01*
X955100Y774220D02*
X1008742D01*
X1046542Y787220D02*
X1065022Y768740D01*
X955540Y760780D02*
X972220D01*
X1024901Y804819D02*
X1065022Y844940D01*
X1044702Y926220D02*
X1065022Y946540D01*
X955310Y793930D02*
X1064812D01*
X1045221Y799739D02*
X1065022Y819540D01*
X1064812Y793930D02*
X1065022Y794140D01*
X964750Y839660D02*
X1046229Y921140D01*
X1029305Y895740D02*
X1065022D01*
X964065Y846160D02*
X1044125Y926220D01*
X966285Y832720D02*
X1029305Y895740D01*
X980000Y682262D02*
X1004012D01*
X972220Y760780D02*
X1039811Y693189D01*
Y693189D02*
Y693189D01*
X968828Y682262D02*
X980000D01*
X955220Y695870D02*
X968828Y682262D01*
X1004012D02*
X1005000Y683250D01*
X976818Y806720D02*
X978719Y804819D01*
X955100Y813220D02*
X977502D01*
X955100Y806720D02*
X976818D01*
X977502Y813220D02*
X980823Y809899D01*
X955100Y832720D02*
X966285D01*
X976133Y800220D02*
X976614Y799739D01*
X978719Y804819D02*
X1024901D01*
X976614Y799739D02*
X1045221D01*
X955100Y800220D02*
X976133D01*
X989842Y767720D02*
X1065022Y692540D01*
X965280Y754720D02*
X1039000Y681000D01*
X973780Y735220D02*
X1028427Y680573D01*
Y652935D02*
Y680573D01*
X1039000Y667762D02*
Y681000D01*
X1028427Y652935D02*
X1065022Y616340D01*
Y667140D02*
Y667978D01*
X994060Y590940D02*
X1065022D01*
X1039000Y667762D02*
X1065022Y641740D01*
X1053482Y554000D02*
X1065022Y565540D01*
X791095Y652100D02*
X874215Y735220D01*
X765000Y652100D02*
X791095D01*
X882990Y611000D02*
X883000Y610990D01*
X883490Y594000D02*
X900000D01*
X883000Y594490D02*
X883490Y594000D01*
X941750D02*
X942000Y593750D01*
X925000Y594000D02*
X941750D01*
X926000Y729000D02*
Y748000D01*
X879340Y741720D02*
X879780Y741280D01*
X891720D01*
X879340Y754720D02*
X879780Y755160D01*
X910160D01*
X879340Y761220D02*
X905588D01*
X930578Y752578D02*
X933578D01*
X879340Y787220D02*
X879781Y787660D01*
X879340Y793720D02*
X879780Y794160D01*
X898160D01*
X879781Y787660D02*
X899660D01*
X879340Y800220D02*
X895135D01*
X879340Y780720D02*
X879780Y780280D01*
X879340Y774220D02*
X879781Y773780D01*
X879780Y780280D02*
X902280D01*
X842820Y780720D02*
X879340D01*
X765000Y702900D02*
X842820Y780720D01*
X879781Y773780D02*
X903780D01*
X928675Y798675D01*
X910160Y755160D02*
X941325Y786325D01*
X904904Y767720D02*
X933755Y796571D01*
X905588Y761220D02*
X938835Y794467D01*
X902280Y780280D02*
X923595Y801595D01*
X879340Y767720D02*
X904904D01*
X879340Y748220D02*
X879781Y747780D01*
X955100Y761220D02*
X955540Y760780D01*
X879781Y747780D02*
X896220D01*
X933578Y752578D02*
X934000Y753000D01*
X938780Y748220D01*
X926000Y748000D02*
X930578Y752578D01*
X938780Y748220D02*
X955100D01*
X952220Y695870D02*
X955220D01*
X949808Y698282D02*
X952220Y695870D01*
X949808Y698282D02*
Y705192D01*
X898415Y803500D02*
X898500D01*
X895135Y800220D02*
X898415Y803500D01*
X955100Y793720D02*
X955310Y793930D01*
X941325Y786325D02*
Y786359D01*
X943915Y788949D01*
X932389Y740991D02*
X939100D01*
X939969Y741860D02*
X954960D01*
X939100Y740991D02*
X939969Y741860D01*
X954960D02*
X955100Y741720D01*
X926000Y729000D02*
X949808Y705192D01*
X955100Y845720D02*
X955540Y846160D01*
X943915Y848392D02*
Y856048D01*
X934212Y897212D02*
Y947650D01*
X928675Y877675D02*
X959612Y908612D01*
X943915Y848392D02*
X943915Y848392D01*
X959612Y908612D02*
Y947650D01*
X850410Y900590D02*
X890525Y860475D01*
X833522Y937478D02*
X900685Y870315D01*
X814868Y945132D02*
X895605Y864395D01*
X858012Y924988D02*
X905765Y877235D01*
X955100Y754720D02*
X965280D01*
X943915Y788949D02*
Y848392D01*
X938835Y794467D02*
Y846288D01*
X899660Y787660D02*
X918000Y806000D01*
X955100Y839220D02*
X955541Y839660D01*
X870387Y825780D02*
X878900D01*
X879340Y813220D02*
X879781Y813660D01*
X878900Y825780D02*
X879340Y826220D01*
Y819720D02*
X879780Y820160D01*
X862000Y817393D02*
X870387Y825780D01*
X864184Y852220D02*
X879340D01*
X863500Y845720D02*
X879340D01*
X910845Y806845D02*
Y883155D01*
X889660Y813660D02*
X895605Y819605D01*
X918000Y806000D02*
Y887000D01*
X883412Y910588D02*
X910845Y883155D01*
X908812Y896188D02*
X918000Y887000D01*
X891160Y807160D02*
X900685Y816685D01*
X895605Y819605D02*
Y864395D01*
X900685Y816685D02*
Y870315D01*
X908812Y896188D02*
Y947650D01*
X905765Y810765D02*
Y877235D01*
X832612Y947650D02*
X833522Y946740D01*
X835404Y881000D02*
X864184Y852220D01*
X858012Y924988D02*
Y947650D01*
X833522Y937478D02*
Y946740D01*
X888293Y820160D02*
X890525Y822392D01*
Y860475D01*
X879780Y820160D02*
X888293D01*
X883412Y910588D02*
Y947650D01*
X879340Y806720D02*
X879780Y807160D01*
X933755Y796571D02*
Y844183D01*
X938835Y846288D02*
X938835Y846288D01*
X928675Y798675D02*
Y842079D01*
X928675Y842079D02*
Y877675D01*
X923595Y839975D02*
X923595Y839975D01*
Y801595D02*
Y839975D01*
X933755Y844184D02*
X933755Y844183D01*
X938835Y846288D02*
Y861019D01*
X933755Y844184D02*
Y871755D01*
X928675Y842079D02*
X928675Y842079D01*
X955541Y839660D02*
X964750D01*
X923595Y839975D02*
Y886595D01*
X934212Y897212D01*
X955540Y846160D02*
X964065D01*
X898160Y794160D02*
X910845Y806845D01*
X879781Y813660D02*
X889660D01*
X898500Y803500D02*
X905765Y810765D01*
X879780Y807160D02*
X891160D01*
X797662Y881000D02*
X835404D01*
X781812Y936188D02*
Y947650D01*
X807212D02*
X809730Y945132D01*
X781812Y936188D02*
X817410Y900590D01*
X850410D01*
X809730Y945132D02*
X814868D01*
X860000Y611000D02*
X882990D01*
X1030492Y540140D02*
X1065022D01*
X614000Y155700D02*
X739600Y281300D01*
X614000Y116250D02*
Y155700D01*
X414150Y702900D02*
X437950D01*
X449849Y691000D02*
X450000D01*
X437950Y702900D02*
X449849Y691000D01*
X450000D02*
X459000Y682000D01*
Y645104D02*
Y682000D01*
X449000Y271380D02*
Y336000D01*
X357896Y544000D02*
X459000Y645104D01*
X301666Y483000D02*
X302896Y481770D01*
X234150Y544000D02*
X357896D01*
X173250Y483100D02*
X234150Y544000D01*
X301000Y483000D02*
X301666D01*
X414020Y236400D02*
X449000Y271380D01*
X303230Y481770D02*
X449000Y336000D01*
X302896Y481770D02*
X303230D01*
X1023816Y554000D02*
X1053482D01*
X473482Y550418D02*
X505114D01*
X494162Y527050D02*
X494670Y526542D01*
X478790Y527050D02*
X494162D01*
X667512Y487400D02*
X699262Y519150D01*
X607750Y487400D02*
X613973D01*
X588700Y519150D02*
X607750Y500100D01*
X613973D01*
X588700Y519150D02*
Y574294D01*
X600360Y585954D01*
X572190Y416052D02*
X588700Y432562D01*
X439648Y519150D02*
X442214D01*
X473482Y550418D01*
X588700Y432562D02*
Y468350D01*
X607750Y487400D01*
X613973D02*
X667512D01*
X505114Y550418D02*
X526472Y571776D01*
X535382D01*
X537900Y574294D01*
X421894Y501396D02*
X439648Y519150D01*
X722630Y491718D02*
Y537318D01*
X699262Y468350D02*
X722630Y491718D01*
X673994Y585954D02*
X722630Y537318D01*
X600360Y585954D02*
X673994D01*
X532700Y995500D02*
X619300D01*
X532700Y938500D02*
Y995500D01*
X584988Y908976D02*
X584988D01*
X583500Y910464D02*
Y916900D01*
X584988Y908976D02*
X587951Y906013D01*
X583500Y910464D02*
X584988Y908976D01*
X592987Y906013D02*
X593000Y906000D01*
X587951Y906013D02*
X592987D01*
X593000Y906000D02*
X618250D01*
X636500Y924250D02*
X639000D01*
X618250Y906000D02*
X636500Y924250D01*
X657178Y927230D02*
X657408Y927000D01*
X641190Y946810D02*
X657178Y930822D01*
X577810Y946810D02*
X641190D01*
X657408Y927000D02*
X661000D01*
X657178Y927230D02*
Y930822D01*
X568000Y937000D02*
X577810Y946810D01*
X483000Y922250D02*
X483988Y921263D01*
X507000D01*
X520463D01*
X532700Y933500D01*
X1020000Y325000D02*
Y390000D01*
X966940Y271940D02*
X1020000Y325000D01*
Y390000D02*
X1039800Y409800D01*
X1028000Y325000D02*
Y369000D01*
X1043400Y384400D01*
X968440Y265440D02*
X1028000Y325000D01*
X955540Y265440D02*
X968440D01*
X971940Y258940D02*
X1062805Y349805D01*
Y356785D02*
X1065020Y359000D01*
X1062805Y349805D02*
Y356785D01*
X955540Y258940D02*
X971940D01*
X1016000Y232000D02*
X1065020D01*
X955100Y226000D02*
X1010000D01*
X1016000Y232000D01*
X1046200Y155800D02*
X1065020D01*
X1032800Y181200D02*
X1065020D01*
X1021400Y206600D02*
X1065020D01*
X955540Y271940D02*
X966940D01*
X1063025Y331605D02*
X1065020Y333600D01*
X976000Y252000D02*
X1055605Y331605D01*
X1063025D01*
X955100Y252000D02*
X976000D01*
X983500Y245500D02*
X1046200Y308200D01*
X1065020D01*
X955100Y245500D02*
X983500D01*
X1062525Y132895D02*
X1065020Y130400D01*
X1056105Y132895D02*
X1062525D01*
X941000Y151000D02*
X1010410Y81590D01*
X930840Y110160D02*
X959610Y81390D01*
X935920Y125080D02*
X982300Y78700D01*
X930840Y110160D02*
Y228916D01*
X1010410Y78700D02*
Y81590D01*
X804450Y306700D02*
X828487Y330738D01*
X856000Y329750D02*
X877470D01*
X1033292Y81218D02*
Y89859D01*
Y81218D02*
X1035810Y78700D01*
X961205Y161947D02*
X1033292Y89859D01*
X1048820Y86180D02*
X1058440D01*
X1065020Y79600D01*
X989212Y239000D02*
X1033012Y282800D01*
X998662Y232500D02*
X1023562Y257400D01*
X1065020D01*
X765000Y306700D02*
X804450D01*
X830000Y330738D02*
X830987Y329750D01*
X828487Y330738D02*
X830000D01*
X830987Y329750D02*
X856000D01*
X959610Y78700D02*
Y81390D01*
X925760Y102240D02*
X934128Y93872D01*
Y78783D02*
Y93872D01*
Y78783D02*
X934210Y78700D01*
X908810D02*
Y90810D01*
X982300Y78700D02*
X985010D01*
X908810Y90810D02*
X920680Y102680D01*
X781810Y78700D02*
X825555Y122445D01*
X860146Y90198D02*
X861199Y90199D01*
X807210Y78700D02*
X841430Y112920D01*
X860528Y81218D02*
X866218D01*
X859945Y90199D02*
X860146Y90198D01*
X832610Y78700D02*
X845091D01*
X845835Y79444D02*
X846427Y80036D01*
X845091Y78700D02*
X845835Y79444D01*
X858010Y78700D02*
X860528Y81218D01*
X910520Y125520D02*
Y210480D01*
X895280Y148280D02*
Y199073D01*
X869445Y122445D02*
X895280Y148280D01*
X905440Y134440D02*
Y206560D01*
X883410Y78700D02*
X915600Y110890D01*
Y216400D01*
X920680Y102680D02*
Y222320D01*
X925760Y102240D02*
Y226812D01*
X935920Y125080D02*
Y232337D01*
X841430Y112920D02*
X872920D01*
X900360Y140360D01*
Y201177D01*
X866218Y81218D02*
X910520Y125520D01*
X825555Y122445D02*
X869445D01*
X861199Y90199D02*
X905440Y134440D01*
X1046200Y435200D02*
X1065020D01*
X998305Y334305D02*
Y419285D01*
X879780Y206060D02*
X888293D01*
X895280Y199073D01*
X885445Y225560D02*
X895440D01*
X879340Y206500D02*
X879780Y206060D01*
X888977Y212560D02*
X900360Y201177D01*
X900256Y211744D02*
X905440Y206560D01*
X892940Y219060D02*
X900256Y211744D01*
X879780Y219060D02*
X892940D01*
X895440Y225560D02*
X910520Y210480D01*
X899940Y232060D02*
X915600Y216400D01*
X879340Y232500D02*
X879780Y232060D01*
X879780Y245060D02*
X907512D01*
X879340Y239000D02*
X904000D01*
X879340Y245500D02*
X879780Y245060D01*
X879780Y232060D02*
X899940D01*
X955100Y239000D02*
X989212D01*
X955100Y232500D02*
X998662D01*
X910257Y258000D02*
X935920Y232337D01*
X954660Y239440D02*
X955100Y239000D01*
X946147Y239440D02*
X954660D01*
X910881Y264560D02*
X941000Y234441D01*
X907512Y245060D02*
X925760Y226812D01*
X904000Y239000D02*
X920680Y222320D01*
X935000Y250587D02*
X946147Y239440D01*
X907756Y252000D02*
X930840Y228916D01*
X934500Y284500D02*
X960225D01*
X955100Y278000D02*
X955540Y278440D01*
X964053D01*
X922000Y272000D02*
X934500Y284500D01*
X879340Y252000D02*
X907756D01*
X907000Y258000D02*
X910257D01*
X879340Y265000D02*
X879780Y264560D01*
X910881D01*
X879340Y258500D02*
X879780Y258060D01*
X906940D02*
X907000Y258000D01*
X879780Y258060D02*
X906940D01*
X879780Y212560D02*
X888977D01*
X879340Y213000D02*
X879780Y212560D01*
X879340Y219500D02*
X879780Y219060D01*
X885004Y226000D02*
X885445Y225560D01*
X879340Y226000D02*
X885004D01*
X961205Y161947D02*
Y166520D01*
X955100Y167500D02*
X960225D01*
X961205Y166520D01*
X941000Y151000D02*
Y234441D01*
X955100Y265000D02*
X955540Y265440D01*
X935000Y250587D02*
Y273000D01*
X922000Y264000D02*
Y272000D01*
X955100Y271500D02*
X955540Y271940D01*
X955100Y258500D02*
X955540Y258940D01*
X877470Y329750D02*
X882220Y325000D01*
X1043400Y384400D02*
X1065020D01*
X1039800Y409800D02*
X1065020D01*
X961000Y297000D02*
X998305Y334305D01*
X1033012Y282800D02*
X1065020D01*
X998305Y419285D02*
X1065020Y486000D01*
X270130Y173560D02*
X278643D01*
X269690Y174000D02*
X270130Y173560D01*
X216172Y78700D02*
Y89172D01*
X191260Y79000D02*
X222240Y109980D01*
Y217161D01*
X165860Y79000D02*
X217160Y130300D01*
Y219265D01*
X291000Y206297D02*
Y211000D01*
X278643Y193940D02*
X291000Y206297D01*
X270131Y193940D02*
X278643D01*
X269690Y193500D02*
X270131Y193940D01*
X193930Y284500D02*
X224500D01*
X180500D02*
X193930D01*
X224500D02*
X236000Y273000D01*
X318013Y335737D02*
X319000Y334750D01*
X295000Y335737D02*
X318013D01*
X280548D02*
X295000D01*
X269810Y325000D02*
X280548Y335737D01*
X174000Y320000D02*
X179000Y325000D01*
X174000Y312000D02*
Y320000D01*
X179000Y325000D02*
X196810D01*
X211529Y260471D02*
Y262414D01*
Y260471D02*
X212000Y260000D01*
X202883Y271060D02*
X211529Y262414D01*
X194370Y271060D02*
X202883D01*
X193930Y271500D02*
X194370Y271060D01*
X84270Y308200D02*
X120125D01*
X184293Y258940D02*
X193490D01*
X96920Y346313D02*
Y346350D01*
X101909Y333600D02*
X183509Y252000D01*
X184977Y265440D02*
X193490D01*
X96920Y346313D02*
X184293Y258940D01*
X84270Y282800D02*
X138341D01*
X109000Y356000D02*
X180500Y284500D01*
X84270Y257400D02*
X156557D01*
X102000Y348417D02*
X184977Y265440D01*
X102000Y348417D02*
Y366670D01*
X84270Y333600D02*
X101909D01*
X109000Y356000D02*
Y385070D01*
X193490Y265440D02*
X193930Y265000D01*
Y278000D02*
X212000D01*
X222000Y268000D01*
X247816Y265000D02*
X269690D01*
X248500Y258500D02*
X269690D01*
X290000Y239000D02*
X290000Y239000D01*
X269690Y239000D02*
X290000D01*
X186000Y348000D02*
X219000D01*
X249000Y318000D01*
Y300065D02*
Y318000D01*
Y300065D02*
X264565Y284500D01*
X110000Y424000D02*
X186000Y348000D01*
X110000Y424000D02*
Y460270D01*
X84270Y486000D02*
X110000Y460270D01*
X84270Y460600D02*
X103000Y441870D01*
Y421000D02*
Y441870D01*
Y421000D02*
X182000Y342000D01*
X214816D01*
X241690Y315126D01*
X84270Y409800D02*
X109000Y385070D01*
X84270Y359000D02*
X96920Y346350D01*
X84270Y435200D02*
X86740Y432730D01*
Y426260D02*
Y432730D01*
Y426260D02*
X177080Y335920D01*
X84270Y384400D02*
X102000Y366670D01*
X177080Y335920D02*
X213712D01*
X234221Y315411D01*
Y294595D02*
X257316Y271500D01*
X234221Y294595D02*
Y315411D01*
X241690Y297487D02*
Y315126D01*
Y297487D02*
X260737Y278440D01*
X269250D01*
X257316Y271500D02*
X269690D01*
X269250Y278440D02*
X269690Y278000D01*
X212080Y222080D02*
X248500Y258500D01*
X207000Y162000D02*
Y224184D01*
X247816Y265000D01*
X359000Y111000D02*
X362460D01*
X394460Y79000D01*
X257800Y164377D02*
X302177Y120000D01*
X328060D01*
X274815Y167500D02*
X308315Y134000D01*
X328060Y120000D02*
X369060Y79000D01*
X310660Y112000D02*
X343660Y79000D01*
X292000Y112000D02*
X310660D01*
X252720Y151280D02*
X292000Y112000D01*
X252720Y151280D02*
Y201720D01*
X247640Y142360D02*
Y206640D01*
X308925Y81075D02*
X316185D01*
X247640Y142360D02*
X308925Y81075D01*
X316185D02*
X318260Y79000D01*
X232400Y212953D02*
X251947Y232500D01*
X237480Y108980D02*
X267460Y79000D01*
X217160Y219265D02*
X249895Y252000D01*
X212080Y150620D02*
Y222080D01*
X216172Y89172D02*
X227320Y100320D01*
Y215057D02*
X251263Y239000D01*
X237480Y210848D02*
X252632Y226000D01*
X232400Y100600D02*
Y212953D01*
X252876Y219060D02*
X269250D01*
X227320Y100320D02*
Y215057D01*
X237480Y108980D02*
Y210848D01*
X232400Y100600D02*
X242060Y90940D01*
X242560Y129300D02*
Y208744D01*
X140460Y79000D02*
X212080Y150620D01*
X242560Y208744D02*
X252876Y219060D01*
X247640Y206640D02*
X253560Y212560D01*
X242560Y129300D02*
X292860Y79000D01*
X174000Y129000D02*
X207000Y162000D01*
X222240Y217161D02*
X250579Y245500D01*
X269250Y219060D02*
X269690Y219500D01*
X115060Y82561D02*
X118735Y86236D01*
Y86735D02*
X161000Y129000D01*
X174000D01*
X115060Y79000D02*
Y82561D01*
X118735Y86236D02*
Y86735D01*
X242060Y79000D02*
Y90940D01*
X257800Y164377D02*
Y196623D01*
X260737Y199560D01*
X252720Y201720D02*
X257060Y206060D01*
X269250D01*
X260737Y199560D02*
X269250D01*
X252632Y226000D02*
X269690D01*
X251947Y232500D02*
X269690D01*
X251263Y239000D02*
X269690D01*
X250579Y245500D02*
X269690D01*
X249895Y252000D02*
X269690D01*
X253560Y212560D02*
X269250D01*
X269250Y199560D02*
X269690Y200000D01*
Y167500D02*
X274815D01*
X269250Y206060D02*
X269690Y206500D01*
X269250Y212560D02*
X269690Y213000D01*
X193490Y258940D02*
X193930Y258500D01*
X183509Y252000D02*
X193930D01*
X84270Y232000D02*
X174772D01*
X247650Y593980D02*
X266442D01*
X266954Y594492D01*
X247102Y735222D02*
X269692D01*
X239522Y735838D02*
X246486D01*
X247102Y735222D01*
X258370Y723900D02*
X269692Y735222D01*
X189230Y723900D02*
X258370D01*
X170180Y704850D02*
X189230Y723900D01*
X170180Y632460D02*
Y704850D01*
X86772Y549052D02*
X170180Y632460D01*
X86772Y542643D02*
Y549052D01*
X84272Y540143D02*
X86772Y542643D01*
X193932Y780722D02*
X194372Y780282D01*
X203206D01*
X214630Y768858D01*
X84272Y743343D02*
X121651Y780722D01*
X193932D01*
X207918Y735222D02*
X213868Y741172D01*
X193932Y735222D02*
X207918D01*
X159766Y706882D02*
X187126Y734242D01*
X159766Y641037D02*
Y706882D01*
X187126Y734242D02*
X192952D01*
X84272Y565543D02*
X159766Y641037D01*
X192952Y734242D02*
X193932Y735222D01*
X293116Y760015D02*
Y770128D01*
X215642Y595000D02*
X215646Y594996D01*
X196342Y595000D02*
X215642D01*
X280014Y833162D02*
X291037Y844185D01*
X269692Y832722D02*
X270132Y833162D01*
X291037Y844185D02*
Y849837D01*
X313182Y871982D02*
X369594D01*
X270132Y833162D02*
X280014D01*
X291037Y849837D02*
X313182Y871982D01*
X279330Y839662D02*
X285957Y846290D01*
X270132Y839662D02*
X279330D01*
X310825Y877753D02*
X354259D01*
X285957Y852885D02*
X310825Y877753D01*
X285957Y846290D02*
Y852885D01*
X280877Y848394D02*
Y856907D01*
X270132Y846162D02*
X278645D01*
X280877Y848394D01*
X269692Y845722D02*
X270132Y846162D01*
X280877Y856907D02*
X306804Y882833D01*
X345159D01*
X278645Y806282D02*
X292100Y792827D01*
Y792226D02*
Y792827D01*
X174017Y826222D02*
X193932D01*
X212344Y794251D02*
Y872672D01*
Y794251D02*
X251873Y754722D01*
X140462Y944554D02*
X212344Y872672D01*
X251873Y754722D02*
X269692D01*
X243840Y876046D02*
X292862Y925068D01*
X243840Y810374D02*
Y876046D01*
X292862Y925068D02*
Y947650D01*
X316228Y945616D02*
X318262Y947650D01*
X316228Y938274D02*
Y945616D01*
X249428Y871474D02*
X316228Y938274D01*
X249428Y811970D02*
Y871474D01*
X238506Y880872D02*
X267462Y909828D01*
X238506Y808524D02*
Y880872D01*
X267462Y909828D02*
Y947650D01*
X228092Y804570D02*
X258000Y774662D01*
X269252D01*
X264027Y787222D02*
X269692D01*
X233172Y806674D02*
Y938760D01*
X260052Y794162D02*
X263587D01*
X259368Y787662D02*
X263587D01*
X264027Y787222D01*
X249428Y811970D02*
X260739Y800662D01*
X233172Y806674D02*
X258684Y781162D01*
X228092Y804570D02*
Y880944D01*
X258684Y781162D02*
X269252D01*
X238506Y808524D02*
X259368Y787662D01*
X243840Y810374D02*
X260052Y794162D01*
X165862Y926338D02*
Y947650D01*
X115062D02*
X187827Y874885D01*
X140462Y944554D02*
Y947650D01*
X191262Y910590D02*
Y947650D01*
X165862Y926338D02*
X217678Y874522D01*
X191262Y910590D02*
X223012Y878840D01*
X152146Y658817D02*
Y708449D01*
X84272Y885754D02*
Y895743D01*
Y885754D02*
X89045Y880981D01*
X269692Y806722D02*
X270132Y806282D01*
X278645D01*
X269692Y839222D02*
X270132Y839662D01*
X264027Y793722D02*
X269692D01*
X263587Y794162D02*
X264027Y793722D01*
X260739Y800662D02*
X269252D01*
X269692Y800222D01*
X223012Y800354D02*
X254334Y769032D01*
X223012Y800354D02*
Y878840D01*
X233172Y938760D02*
X242062Y947650D01*
X216662Y892374D02*
X228092Y880944D01*
X216662Y892374D02*
Y947650D01*
X369594Y871982D02*
X445262Y947650D01*
X354259Y877753D02*
X416305Y939799D01*
X345159Y882833D02*
X382270Y919944D01*
Y935458D01*
X419862Y944089D02*
Y947650D01*
X416305Y940531D02*
X419862Y944089D01*
X416305Y939799D02*
Y940531D01*
X382270Y935458D02*
X394462Y947650D01*
X103593Y800222D02*
X193932D01*
X84272Y794143D02*
X84482Y793932D01*
X193722D01*
X252230Y763952D02*
X253514D01*
X217678Y798504D02*
X252230Y763952D01*
X140551Y774222D02*
X193932D01*
X102752Y787222D02*
X193932D01*
X159452Y767722D02*
X193932D01*
X168568Y761222D02*
X193932D01*
X84272Y768743D02*
X102752Y787222D01*
X143764Y711200D02*
X180346Y747782D01*
X125329Y717983D02*
X168568Y761222D01*
X84272Y717943D02*
X140551Y774222D01*
X135885Y716704D02*
X173902Y754722D01*
X180346Y747782D02*
X193492D01*
X173902Y754722D02*
X193932D01*
X193722Y793932D02*
X193932Y793722D01*
X184979Y741282D02*
X193492D01*
X188807Y852222D02*
X193932D01*
X187827Y853202D02*
X188807Y852222D01*
X193492Y747782D02*
X193932Y748222D01*
X193492Y741282D02*
X193932Y741722D01*
X217678Y798504D02*
Y874522D01*
X122493Y806722D02*
X193932D01*
X84272Y819543D02*
X103593Y800222D01*
X141393Y813222D02*
X193932D01*
X150304Y819722D02*
X193932D01*
X84272Y870343D02*
X141393Y813222D01*
X84272Y844943D02*
X122493Y806722D01*
X187827Y853202D02*
Y874885D01*
X94910Y875116D02*
X150304Y819722D01*
X254334Y769032D02*
X257637D01*
X253514Y763952D02*
X256244Y761222D01*
X263587Y768162D02*
X264027Y767722D01*
X258507Y768162D02*
X263587D01*
X257637Y769032D02*
X258507Y768162D01*
X256244Y761222D02*
X269692D01*
X152146Y708449D02*
X184979Y741282D01*
X125329Y708199D02*
Y717983D01*
X84272Y692543D02*
X159452Y767722D01*
X135885Y693355D02*
Y716704D01*
X84272Y667143D02*
X125329Y708199D01*
X143764Y675835D02*
Y711200D01*
X196812Y695866D02*
X266812D01*
X269252Y781162D02*
X269692Y780722D01*
X269252Y774662D02*
X269692Y774222D01*
X266812Y695866D02*
X267028Y696082D01*
X296418D01*
Y732316D01*
X293220Y735514D02*
X296418Y732316D01*
X281940Y723392D02*
X286730Y728182D01*
Y733197D01*
X264027Y767722D02*
X269692D01*
Y741722D02*
X270133Y741282D01*
X278645D01*
X292904Y748222D02*
X293220Y748538D01*
X269692Y748222D02*
X292904D01*
X293220Y735514D02*
Y748538D01*
X293116Y760015D02*
X293220Y760118D01*
Y748538D02*
Y760118D01*
X278645Y741282D02*
X286730Y733197D01*
X84272Y641743D02*
X135885Y693355D01*
X84272Y616343D02*
X143764Y675835D01*
X185806Y611500D02*
X196342D01*
X182118Y615188D02*
X185806Y611500D01*
X84272Y590943D02*
X152146Y658817D01*
D21*
X942000Y610250D02*
D03*
Y593750D02*
D03*
X942000Y395750D02*
D03*
Y412250D02*
D03*
X883000Y395750D02*
D03*
Y412250D02*
D03*
X856000Y346250D02*
D03*
X659000Y907750D02*
D03*
X639000Y907750D02*
D03*
X483000Y905750D02*
D03*
X538146Y249418D02*
D03*
X518922Y862763D02*
D03*
Y879263D02*
D03*
X615696Y864494D02*
D03*
Y880994D02*
D03*
X515794Y283444D02*
D03*
X538146Y265918D02*
D03*
X515794Y266944D02*
D03*
X883000Y594490D02*
D03*
Y610990D02*
D03*
X1005000Y683250D02*
D03*
Y666750D02*
D03*
X659000Y924250D02*
D03*
X483000Y922250D02*
D03*
X639000Y924250D02*
D03*
X856000Y329750D02*
D03*
X296418Y696080D02*
D03*
Y679580D02*
D03*
X196340Y611500D02*
D03*
Y595000D02*
D03*
X266950Y610990D02*
D03*
Y594490D02*
D03*
X266950Y412250D02*
D03*
Y395750D02*
D03*
X196340Y412250D02*
D03*
Y395750D02*
D03*
X319000Y351250D02*
D03*
Y334750D02*
D03*
D22*
X925000Y412750D02*
D03*
Y396750D02*
D03*
X900000Y412000D02*
D03*
X925000Y610000D02*
D03*
X900000D02*
D03*
X900000Y396000D02*
D03*
X247650Y609980D02*
D03*
X215650Y610996D02*
D03*
X215650Y396000D02*
D03*
X247650D02*
D03*
X925000Y594000D02*
D03*
X900000D02*
D03*
X215650Y412000D02*
D03*
X247650Y593980D02*
D03*
X215650Y594996D02*
D03*
X247650Y412000D02*
D03*
D23*
X879340Y193500D02*
D03*
X955100Y187000D02*
D03*
X955100Y852220D02*
D03*
X879340Y839220D02*
D03*
X955100Y819720D02*
D03*
X879340Y200000D02*
D03*
X955100Y180500D02*
D03*
X879340Y167500D02*
D03*
X269690Y852220D02*
D03*
X193930Y839220D02*
D03*
X269690Y819720D02*
D03*
X269690Y180500D02*
D03*
X193930Y200000D02*
D03*
Y167500D02*
D03*
X879340Y741720D02*
D03*
Y748220D02*
D03*
Y754720D02*
D03*
Y761220D02*
D03*
Y767720D02*
D03*
Y774220D02*
D03*
Y787220D02*
D03*
Y793720D02*
D03*
Y800220D02*
D03*
Y806720D02*
D03*
Y813220D02*
D03*
Y819720D02*
D03*
Y826220D02*
D03*
Y845720D02*
D03*
Y852220D02*
D03*
X955100Y754720D02*
D03*
Y774220D02*
D03*
Y793720D02*
D03*
Y839220D02*
D03*
Y806720D02*
D03*
Y767720D02*
D03*
Y787220D02*
D03*
Y800220D02*
D03*
Y832720D02*
D03*
Y761220D02*
D03*
Y780720D02*
D03*
Y813220D02*
D03*
Y845720D02*
D03*
Y741720D02*
D03*
Y748220D02*
D03*
X879340Y832720D02*
D03*
X955100Y826220D02*
D03*
Y735220D02*
D03*
X879340Y780720D02*
D03*
Y735220D02*
D03*
X879340Y174000D02*
D03*
Y180500D02*
D03*
Y187000D02*
D03*
Y206500D02*
D03*
Y213000D02*
D03*
Y219500D02*
D03*
Y226000D02*
D03*
Y232500D02*
D03*
Y239000D02*
D03*
Y245500D02*
D03*
Y252000D02*
D03*
Y258500D02*
D03*
Y265000D02*
D03*
Y271500D02*
D03*
Y278000D02*
D03*
Y284500D02*
D03*
X955100D02*
D03*
Y278000D02*
D03*
Y271500D02*
D03*
Y265000D02*
D03*
Y258500D02*
D03*
Y252000D02*
D03*
Y245500D02*
D03*
Y239000D02*
D03*
Y232500D02*
D03*
Y226000D02*
D03*
Y219500D02*
D03*
Y213000D02*
D03*
Y206500D02*
D03*
Y200000D02*
D03*
Y193500D02*
D03*
Y174000D02*
D03*
Y167500D02*
D03*
X193930Y219500D02*
D03*
Y258500D02*
D03*
Y180500D02*
D03*
Y226000D02*
D03*
Y245500D02*
D03*
Y252000D02*
D03*
Y213000D02*
D03*
X269690Y271500D02*
D03*
X193930Y174000D02*
D03*
Y206500D02*
D03*
X269690Y284500D02*
D03*
X193930Y239000D02*
D03*
Y265000D02*
D03*
X269690Y278000D02*
D03*
X193930Y187000D02*
D03*
Y232500D02*
D03*
Y284500D02*
D03*
X193930Y852220D02*
D03*
Y845720D02*
D03*
Y832720D02*
D03*
Y826220D02*
D03*
Y819720D02*
D03*
Y813220D02*
D03*
Y806720D02*
D03*
Y800220D02*
D03*
Y793720D02*
D03*
Y787220D02*
D03*
Y774220D02*
D03*
Y767720D02*
D03*
Y761220D02*
D03*
Y754720D02*
D03*
Y748220D02*
D03*
Y741720D02*
D03*
X269690D02*
D03*
Y748220D02*
D03*
Y754720D02*
D03*
Y761220D02*
D03*
Y767720D02*
D03*
Y774220D02*
D03*
Y780720D02*
D03*
Y787220D02*
D03*
Y793720D02*
D03*
Y800220D02*
D03*
Y806720D02*
D03*
Y813220D02*
D03*
Y826220D02*
D03*
Y832720D02*
D03*
Y839220D02*
D03*
Y845720D02*
D03*
X193930Y735220D02*
D03*
Y780720D02*
D03*
X269690Y735220D02*
D03*
X193930Y193500D02*
D03*
Y271500D02*
D03*
Y278000D02*
D03*
X269690Y265000D02*
D03*
Y258500D02*
D03*
Y252000D02*
D03*
Y245500D02*
D03*
Y239000D02*
D03*
Y232500D02*
D03*
Y226000D02*
D03*
Y219500D02*
D03*
Y213000D02*
D03*
Y206500D02*
D03*
Y200000D02*
D03*
Y193500D02*
D03*
Y187000D02*
D03*
Y174000D02*
D03*
Y167500D02*
D03*
D24*
X985810Y185447D02*
D03*
X852000Y200738D02*
D03*
X849000Y843262D02*
D03*
X991000Y821738D02*
D03*
X980000Y667738D02*
D03*
X593000Y879262D02*
D03*
X985810Y170922D02*
D03*
X830000Y345262D02*
D03*
X630856Y280679D02*
D03*
X852000Y215262D02*
D03*
X566000Y879263D02*
D03*
X507000Y906737D02*
D03*
X162560Y852574D02*
D03*
X299970Y815698D02*
D03*
X295000Y350263D02*
D03*
X299970Y176782D02*
D03*
X162250Y202762D02*
D03*
X566000Y864737D02*
D03*
X593000Y864738D02*
D03*
X630856Y266154D02*
D03*
X980000Y682262D02*
D03*
X849000Y828738D02*
D03*
X991000Y836262D02*
D03*
X507000Y921263D02*
D03*
X830000Y330738D02*
D03*
X162560Y838050D02*
D03*
X299970Y830222D02*
D03*
X299970Y191306D02*
D03*
X162250Y188237D02*
D03*
X295000Y335737D02*
D03*
D25*
X830500Y218500D02*
D03*
X798500Y836000D02*
D03*
X805500Y209000D02*
D03*
X345750Y820166D02*
D03*
X345750Y184000D02*
D03*
X823500Y826500D02*
D03*
X798500D02*
D03*
Y845500D02*
D03*
X823500D02*
D03*
X830500Y199500D02*
D03*
X805500D02*
D03*
Y218500D02*
D03*
X345750Y810666D02*
D03*
Y829666D02*
D03*
X320750D02*
D03*
Y810666D02*
D03*
X320750Y174500D02*
D03*
Y193500D02*
D03*
X345750D02*
D03*
Y174500D02*
D03*
D26*
X882220Y655870D02*
D03*
X952220D02*
D03*
Y365000D02*
D03*
X882220D02*
D03*
X266810Y655870D02*
D03*
X196810D02*
D03*
X266810Y365000D02*
D03*
X196810D02*
D03*
X882220Y695870D02*
D03*
X952220D02*
D03*
Y325000D02*
D03*
X882220D02*
D03*
X266810Y695870D02*
D03*
X196810D02*
D03*
X266810Y325000D02*
D03*
X196810D02*
D03*
D27*
X603500Y916900D02*
D03*
X548500D02*
D03*
X563500D02*
D03*
X588500D02*
D03*
X573500D02*
D03*
X578500D02*
D03*
X598500D02*
D03*
X593500D02*
D03*
X583500D02*
D03*
X568500D02*
D03*
X558500D02*
D03*
X553500D02*
D03*
D28*
X598750Y841000D02*
D03*
X579250D02*
D03*
X553250D02*
D03*
X546750D02*
D03*
X572750Y771000D02*
D03*
X533750Y841000D02*
D03*
X540250D02*
D03*
X559750D02*
D03*
X566250D02*
D03*
X572750D02*
D03*
X585750D02*
D03*
X592250D02*
D03*
X605250D02*
D03*
X611750D02*
D03*
X618250D02*
D03*
Y771000D02*
D03*
X611750D02*
D03*
X605250D02*
D03*
X598750D02*
D03*
X592250D02*
D03*
X585750D02*
D03*
X579250D02*
D03*
X566250D02*
D03*
X559750D02*
D03*
X553250D02*
D03*
X546750D02*
D03*
X540250D02*
D03*
D29*
X654165Y525500D02*
D03*
X307744Y748538D02*
D03*
X575127Y309484D02*
D03*
X560602D02*
D03*
X639641Y525500D02*
D03*
X293220Y748538D02*
D03*
D30*
X608250Y283576D02*
D03*
Y270576D02*
D03*
Y264076D02*
D03*
X564250Y283576D02*
D03*
Y277076D02*
D03*
Y270576D02*
D03*
Y264076D02*
D03*
X608250Y277076D02*
D03*
D31*
X538027Y487400D02*
D03*
Y512800D02*
D03*
Y525500D02*
D03*
X613973D02*
D03*
Y512800D02*
D03*
Y500100D02*
D03*
Y487400D02*
D03*
X538027Y500100D02*
D03*
D32*
X580178Y240142D02*
D03*
X563678D02*
D03*
X511170Y526542D02*
D03*
X494670D02*
D03*
X511170Y499364D02*
D03*
X494670D02*
D03*
D33*
X533750Y771000D02*
D03*
D34*
X538654Y281068D02*
D03*
Y297768D02*
D03*
D43*
X765000Y346250D02*
D03*
X740160Y871980D02*
D03*
Y120900D02*
D03*
X414020Y871980D02*
D03*
Y120900D02*
D03*
X699262Y493750D02*
D03*
X442214D02*
D03*
X699262Y544550D02*
D03*
X442214D02*
D03*
X765000Y806720D02*
D03*
X442214Y519150D02*
D03*
X699262D02*
D03*
X388620Y806720D02*
D03*
X613000Y335000D02*
D03*
X388620Y346250D02*
D03*
D46*
X512500Y432562D02*
D03*
X614100Y730700D02*
D03*
X588700D02*
D03*
X563300D02*
D03*
X537900D02*
D03*
X563300Y705300D02*
D03*
X588700D02*
D03*
X614100D02*
D03*
X614100Y432562D02*
D03*
X563300Y574294D02*
D03*
Y432562D02*
D03*
X512500Y574294D02*
D03*
X1065020Y921140D02*
D03*
Y895740D02*
D03*
Y819540D02*
D03*
Y692540D02*
D03*
Y743340D02*
D03*
Y616340D02*
D03*
Y844940D02*
D03*
Y641740D02*
D03*
Y768740D02*
D03*
Y565540D02*
D03*
Y870340D02*
D03*
Y794140D02*
D03*
Y667140D02*
D03*
Y590940D02*
D03*
Y717940D02*
D03*
Y540140D02*
D03*
X731010Y947650D02*
D03*
X756410D02*
D03*
X781810D02*
D03*
X807210D02*
D03*
X832610D02*
D03*
X858010D02*
D03*
X883410D02*
D03*
X908810D02*
D03*
X934210D02*
D03*
X959610D02*
D03*
X985010D02*
D03*
X1010410D02*
D03*
X1035810D02*
D03*
X537900Y432562D02*
D03*
X588700D02*
D03*
X537900Y574294D02*
D03*
X588700D02*
D03*
X614100D02*
D03*
X1065020Y105000D02*
D03*
Y130400D02*
D03*
Y155800D02*
D03*
Y181200D02*
D03*
Y206600D02*
D03*
Y232000D02*
D03*
Y257400D02*
D03*
Y282800D02*
D03*
Y308200D02*
D03*
Y333600D02*
D03*
Y359000D02*
D03*
Y384400D02*
D03*
Y409800D02*
D03*
Y435200D02*
D03*
Y460600D02*
D03*
Y486000D02*
D03*
X731010Y78700D02*
D03*
X756410D02*
D03*
X781810D02*
D03*
X807210D02*
D03*
X832610D02*
D03*
X858010D02*
D03*
X883410Y78700D02*
D03*
X908810Y78700D02*
D03*
X934210D02*
D03*
X959610D02*
D03*
X985010D02*
D03*
X1010410D02*
D03*
X1035810D02*
D03*
X84270Y486000D02*
D03*
Y460600D02*
D03*
Y435200D02*
D03*
Y409800D02*
D03*
Y384400D02*
D03*
Y359000D02*
D03*
Y333600D02*
D03*
Y308200D02*
D03*
Y282800D02*
D03*
Y257400D02*
D03*
Y232000D02*
D03*
Y206600D02*
D03*
Y181200D02*
D03*
Y155800D02*
D03*
Y130400D02*
D03*
Y105000D02*
D03*
X84270Y540140D02*
D03*
Y743340D02*
D03*
Y565540D02*
D03*
X115060Y947650D02*
D03*
X140460D02*
D03*
X165860D02*
D03*
X191260D02*
D03*
X216660D02*
D03*
X242060D02*
D03*
X267460D02*
D03*
X292860D02*
D03*
X318260D02*
D03*
X343660D02*
D03*
X369060D02*
D03*
X394460D02*
D03*
X419860D02*
D03*
X84270Y590940D02*
D03*
Y616340D02*
D03*
Y641740D02*
D03*
Y667140D02*
D03*
Y692540D02*
D03*
Y717940D02*
D03*
Y768740D02*
D03*
Y794140D02*
D03*
Y819540D02*
D03*
Y844940D02*
D03*
Y870340D02*
D03*
Y895740D02*
D03*
Y921140D02*
D03*
X419860Y78700D02*
D03*
X394460D02*
D03*
X369060D02*
D03*
X343660D02*
D03*
X318260D02*
D03*
X292860D02*
D03*
X267460D02*
D03*
X242060D02*
D03*
X216660D02*
D03*
X191260D02*
D03*
X165860D02*
D03*
X140460D02*
D03*
X115060D02*
D03*
D48*
X537900Y705300D02*
D03*
X639500Y574294D02*
D03*
X705610Y947650D02*
D03*
X639500Y432562D02*
D03*
X705610Y78700D02*
D03*
X445260Y947650D02*
D03*
X445260Y78700D02*
D03*
D51*
X414020Y346250D02*
D03*
X638400Y335000D02*
D03*
X414020Y806720D02*
D03*
X739600Y346250D02*
D03*
X739600Y806720D02*
D03*
D54*
X740160Y846580D02*
D03*
X414020D02*
D03*
Y146300D02*
D03*
X740160D02*
D03*
X442214Y468350D02*
D03*
X699262D02*
D03*
D56*
X1065020Y946540D02*
D03*
X1065020Y79600D02*
D03*
X84270Y79600D02*
D03*
X84270Y946540D02*
D03*
D60*
X900706Y696000D02*
D03*
X284250Y826250D02*
D03*
X179701Y836612D02*
D03*
X644250Y757750D02*
D03*
X546000Y817500D02*
D03*
X934500Y695500D02*
D03*
X509500Y729750D02*
D03*
X670500Y538936D02*
D03*
X577277Y898079D02*
D03*
X649000Y298250D02*
D03*
X556268Y219000D02*
D03*
X327250Y248500D02*
D03*
X290000Y284750D02*
D03*
X144250Y172750D02*
D03*
X321250Y156250D02*
D03*
X304250Y205500D02*
D03*
X295000Y316250D02*
D03*
X176000Y396000D02*
D03*
X180000Y154750D02*
D03*
X143000Y202750D02*
D03*
X864750Y144500D02*
D03*
X902500Y325000D02*
D03*
X908000Y283750D02*
D03*
X853750Y278190D02*
D03*
X807750Y334500D02*
D03*
X849250Y186250D02*
D03*
X972750Y389250D02*
D03*
X972500Y197000D02*
D03*
X859500Y389750D02*
D03*
X912125Y396000D02*
D03*
X1005332Y171450D02*
D03*
X969518Y867918D02*
D03*
X1016508Y830834D02*
D03*
X857758Y653796D02*
D03*
X627126Y898906D02*
D03*
X836930Y859536D02*
D03*
X776310Y836000D02*
D03*
X969518Y644906D02*
D03*
X912500Y610000D02*
D03*
X1005840Y150754D02*
D03*
X823250Y231750D02*
D03*
X580750Y286826D02*
D03*
X591750D02*
D03*
Y273826D02*
D03*
Y260826D02*
D03*
X580750D02*
D03*
X531622Y899668D02*
D03*
X547370Y874014D02*
D03*
X269690Y864921D02*
D03*
X361188Y820166D02*
D03*
X150114Y866394D02*
D03*
X308864Y784352D02*
D03*
X307594Y732536D02*
D03*
X580750Y273826D02*
D03*
X259080Y628650D02*
D03*
X231000Y395750D02*
D03*
X821944Y868934D02*
D03*
X538480Y864870D02*
D03*
X611564Y807906D02*
D03*
X578659Y808228D02*
D03*
X302541Y508708D02*
D03*
X555941Y925765D02*
D03*
X488535Y821286D02*
D03*
X493000Y748000D02*
D03*
X488000Y703000D02*
D03*
X510000Y299000D02*
D03*
X302000Y533000D02*
D03*
X299720Y799338D02*
D03*
X359000Y111000D02*
D03*
X174000Y312000D02*
D03*
X212000Y260000D02*
D03*
X222000Y268000D02*
D03*
X236000Y273000D02*
D03*
X290000Y239000D02*
D03*
X291000Y211000D02*
D03*
X301000Y483000D02*
D03*
X478790Y527050D02*
D03*
X481140Y499712D02*
D03*
X182118Y615188D02*
D03*
X213868Y741172D02*
D03*
X214630Y768858D02*
D03*
X239522Y735838D02*
D03*
X281940Y723392D02*
D03*
X292100Y792226D02*
D03*
X293116Y770128D02*
D03*
X174017Y826222D02*
D03*
X576000Y606000D02*
D03*
X922000Y264000D02*
D03*
X935000Y273000D02*
D03*
X860000Y611000D02*
D03*
X862000Y817393D02*
D03*
X932389Y740991D02*
D03*
X934000Y753000D02*
D03*
X936000Y623000D02*
D03*
X1005000Y652000D02*
D03*
X1009000Y853000D02*
D03*
D61*
X860146Y90198D02*
D03*
X845835Y79444D02*
D03*
D62*
X586250Y273826D02*
D03*
D63*
X284235Y826235D02*
X284478Y826478D01*
Y826934D02*
X287714Y830170D01*
X298907D01*
X269705Y826235D02*
X284235D01*
X269692Y826222D02*
X269705Y826235D01*
X284478Y826478D02*
Y826934D01*
X180023Y836612D02*
X183569Y833065D01*
X164999Y849881D02*
X174816D01*
X162433Y852447D02*
X164999Y849881D01*
X193589Y839565D02*
X193932Y839222D01*
X183569Y833065D02*
X193452D01*
X177941Y838050D02*
X179379Y836612D01*
X185132Y839565D02*
X193589D01*
X179379Y836612D02*
X180023D01*
X162560Y838050D02*
X177941D01*
X174816Y849881D02*
X185132Y839565D01*
X193452Y833065D02*
X193864Y832654D01*
X644250Y757562D02*
Y757750D01*
X637188Y750500D02*
X644250Y757562D01*
X582635Y750500D02*
X637188D01*
X572786Y760349D02*
X582635Y750500D01*
X572786Y760349D02*
Y770964D01*
X572750Y771000D02*
X572786Y770964D01*
X630856Y266154D02*
X631421Y266719D01*
X628778Y264076D02*
X630856Y266154D01*
X566000Y864737D02*
X568385Y862352D01*
X565868Y864870D02*
X566000Y864737D01*
X510000Y299000D02*
Y299322D01*
Y295000D02*
Y299000D01*
X546000Y817500D02*
X577978D01*
X585864D02*
X598714Y830349D01*
X577978Y817500D02*
X579250Y818772D01*
X577978Y817500D02*
X585864D01*
X553250Y824750D02*
Y841000D01*
X546000Y817500D02*
X553250Y824750D01*
X579250Y818772D02*
Y841000D01*
X530407Y485839D02*
Y486003D01*
X512500Y432562D02*
Y467932D01*
X530407Y485839D01*
Y486003D02*
X531804Y487400D01*
X538027D01*
X670500Y534000D02*
Y538936D01*
X662000Y525500D02*
X670500Y534000D01*
X985571Y172679D02*
X987636Y170614D01*
X196812Y655866D02*
X266810D01*
X266812D01*
X290000Y175750D02*
X299970D01*
X302514D01*
X215650Y610996D02*
X247650D01*
X654165Y525500D02*
X662000D01*
X299970Y175750D02*
Y176782D01*
Y168030D02*
Y175750D01*
X231000Y383000D02*
Y395750D01*
Y382750D02*
Y383000D01*
X568385Y862352D02*
X575647D01*
X585729Y852270D01*
Y841021D02*
Y852270D01*
Y841021D02*
X585750Y841000D01*
X488535Y752465D02*
X493000Y748000D01*
X488535Y752465D02*
Y821286D01*
X488000Y702678D02*
Y703000D01*
X485936Y700614D02*
X488000Y702678D01*
X485936Y647064D02*
Y700614D01*
X513731Y285508D02*
Y291269D01*
X510000Y295000D02*
X513731Y291269D01*
X507936Y301386D02*
X510000Y299322D01*
X378936Y540064D02*
X485936Y647064D01*
X378936Y473064D02*
X507936Y344064D01*
X513731Y285508D02*
X515794Y283444D01*
X507936Y301386D02*
Y344064D01*
X378936Y473064D02*
Y540064D01*
X649000Y276000D02*
Y298250D01*
X639719Y266719D02*
X649000Y276000D01*
X631421Y266719D02*
X639719D01*
X304250Y261880D02*
X388620Y346250D01*
X304250Y205500D02*
Y261880D01*
X145478Y172978D02*
X160737Y188237D01*
X144478Y172978D02*
X145478D01*
X160737Y188237D02*
X162250D01*
X144250Y172750D02*
X144478Y172978D01*
X311750Y156250D02*
X321250D01*
X299970Y168030D02*
X311750Y156250D01*
X299970Y191306D02*
X301126D01*
X304250Y194430D01*
Y205500D01*
X348500Y351250D02*
X353500Y346250D01*
X319000Y351250D02*
X348500D01*
X353500Y346250D02*
X388620D01*
X285000Y365000D02*
X290603Y359397D01*
Y353386D02*
Y359397D01*
X266810Y365000D02*
X285000D01*
X248750D02*
X266810D01*
X290603Y353386D02*
X293726Y350263D01*
X295000D01*
X231000Y395750D02*
X247400D01*
X231000Y382750D02*
X248750Y365000D01*
X213000D02*
X231000Y383000D01*
X196810Y365000D02*
X213000D01*
X247400Y395750D02*
X247650Y396000D01*
X215900Y395750D02*
X231000D01*
X215650Y396000D02*
X215900Y395750D01*
X266950Y395750D02*
X285950D01*
X319000Y362700D01*
X143012Y202762D02*
X162250D01*
X165012Y200000D01*
X193930D01*
X175536Y193500D02*
X193930D01*
X172773Y190737D02*
X175536Y193500D01*
X163000Y190737D02*
X172773D01*
X949220Y365000D02*
X952220D01*
X882220D02*
X949220D01*
X285250Y180500D02*
X290000Y175750D01*
X269690Y180500D02*
X285250D01*
X289806Y191306D02*
X299970D01*
X285500Y187000D02*
X289806Y191306D01*
X269690Y187000D02*
X285500D01*
X359345Y175595D02*
X363750Y180000D01*
Y187194D01*
X349845Y175595D02*
X359345D01*
X358546Y192398D02*
X363750Y187194D01*
X353335Y192398D02*
X358546D01*
X353328Y192405D02*
X353335Y192398D01*
X346845Y192405D02*
X353328D01*
X349845Y173974D02*
Y175595D01*
Y170405D02*
Y173974D01*
X346276D02*
X349845D01*
X345750Y174500D02*
X346276Y173974D01*
X345750Y193500D02*
X346845Y192405D01*
X382422Y161793D02*
X397915Y146300D01*
X349845Y170405D02*
X358458Y161793D01*
X382422D01*
X397915Y146300D02*
X414020D01*
X299970Y191306D02*
X303093Y188183D01*
X308738D02*
X316854Y180067D01*
Y175595D02*
X317764Y174685D01*
X303093Y188183D02*
X308738D01*
X316854Y175595D02*
Y180067D01*
X317764Y174685D02*
X320565D01*
X864750Y144500D02*
X879340Y159090D01*
Y167500D01*
X852000Y215262D02*
X855124Y212139D01*
X858688D02*
X870387Y200440D01*
X871969D01*
X872064Y200345D01*
X855124Y212139D02*
X858688D01*
X874215Y200000D02*
X879340D01*
X873870Y200345D02*
X874215Y200000D01*
X872064Y200345D02*
X873870D01*
X882220Y325000D02*
X952220D01*
X927730Y386491D02*
X949220Y365000D01*
X927730Y386491D02*
Y394020D01*
X925000Y396750D02*
X927730Y394020D01*
X912125Y396000D02*
X924249D01*
X807750Y334500D02*
X818512Y345262D01*
X830000D01*
X981738Y187000D02*
X983000Y188262D01*
X983115Y188148D02*
X986124Y185139D01*
X850389Y203861D02*
X860750Y193500D01*
X849250Y197988D02*
X852000Y200738D01*
X849250Y186250D02*
Y197988D01*
X967965Y180500D02*
X975786Y172679D01*
X985571D01*
X987636Y169102D02*
Y170614D01*
X955100Y180500D02*
X967965D01*
X856000Y385584D02*
X859500Y389084D01*
Y389750D02*
X865500Y395750D01*
X883000D01*
X856000Y346250D02*
Y385584D01*
X859500Y389084D02*
Y389750D01*
X900000Y396000D02*
X912125D01*
X834595Y213114D02*
X843848Y203861D01*
X833500Y218500D02*
X834595Y217405D01*
X843848Y203861D02*
X850389D01*
X834595Y213114D02*
Y217405D01*
X830500Y218500D02*
X833500D01*
X860750Y193500D02*
X879340D01*
X955100Y187000D02*
X981738D01*
X992278Y184504D02*
X992278D01*
X991643Y185139D02*
X992278Y184504D01*
X992278D02*
X1005332Y171450D01*
X986124Y185139D02*
X991643D01*
X961205Y859605D02*
X969518Y867918D01*
X961205Y853200D02*
Y859605D01*
X955100Y852220D02*
X960225D01*
X1010412Y824738D02*
X1016508Y830834D01*
X960225Y852220D02*
X961205Y853200D01*
X845014Y846386D02*
X848138Y843262D01*
X849000D01*
X843729Y852594D02*
X845014Y851309D01*
Y846386D02*
Y851309D01*
X854555Y839220D02*
X879340D01*
X850512Y843262D02*
X854555Y839220D01*
X994000Y824738D02*
X1010412D01*
X991000Y821738D02*
X994000Y824738D01*
X967088Y667738D02*
X980000D01*
X966184Y644906D02*
X969518D01*
X955220Y655870D02*
X967088Y667738D01*
X955220Y655870D02*
X966184Y644906D01*
X955100Y819720D02*
X988983D01*
X859832Y655870D02*
X882220D01*
X952220D02*
X955220D01*
X857758Y653796D02*
X859832Y655870D01*
X639000Y907750D02*
X659000D01*
X639000Y907750D02*
X659000D01*
X639000Y907750D02*
X639000Y907750D01*
X636499Y907750D02*
X639000D01*
X659000Y907750D02*
X659000Y907750D01*
X627883Y899134D02*
X636499Y907750D01*
X627126Y898906D02*
X627354Y899134D01*
X836930Y859536D02*
X843729Y852737D01*
Y852594D02*
Y852737D01*
X776310Y836000D02*
X798500D01*
X776224Y835914D02*
X776310Y836000D01*
X627354Y899134D02*
X627883D01*
X598714Y840964D02*
X598750Y841000D01*
X598714Y830349D02*
Y840964D01*
X912500Y610000D02*
X925000D01*
X900000D02*
X912500D01*
X987636Y169102D02*
X1005840Y150898D01*
X823250Y231750D02*
X834000D01*
X850487Y215262D02*
X852000D01*
X834000Y231750D02*
X850487Y215262D01*
X552619Y879263D02*
X566000D01*
X547370Y874014D02*
X552619Y879263D01*
X507000Y906737D02*
X524553D01*
X483000Y905750D02*
X483988Y906737D01*
X507000D01*
X524553D02*
X531622Y899668D01*
X566000Y879262D02*
X593000D01*
X566000Y879263D02*
X566000Y879262D01*
X546750Y841000D02*
X553250D01*
X269690Y852220D02*
Y864921D01*
X154495Y866394D02*
X160964Y859925D01*
Y854170D02*
Y859925D01*
X150114Y866394D02*
X154495D01*
X160964Y854170D02*
X162560Y852574D01*
X345750Y820166D02*
X361188D01*
X299970Y815698D02*
X301483D01*
X290348Y818108D02*
X296444D01*
X298907Y815645D01*
X304606Y809549D02*
Y812574D01*
Y809549D02*
X308864Y805291D01*
X301483Y815698D02*
X304606Y812574D01*
X275160Y819375D02*
X276966D01*
X277059Y819282D01*
X269692Y819722D02*
X274813D01*
X275160Y819375D01*
X277059Y819282D02*
X289174D01*
X290348Y818108D01*
X308864Y784352D02*
Y805291D01*
X266810Y655866D02*
Y655870D01*
Y636380D02*
Y655866D01*
X259080Y628650D02*
X266810Y636380D01*
X247650Y610996D02*
Y617220D01*
Y609980D02*
Y610996D01*
Y617220D02*
X259080Y628650D01*
X215646Y610996D02*
X215650D01*
X764223Y827595D02*
X797405D01*
X746318Y845500D02*
X764223Y827595D01*
X741240Y845500D02*
X746318D01*
X791882D01*
X798500D01*
X797405Y827595D02*
X798500Y826500D01*
X821944Y860588D02*
Y868934D01*
X827278Y847230D02*
Y855254D01*
X821944Y860588D02*
X827278Y855254D01*
X823500Y845500D02*
X826500D01*
X838976Y830025D02*
X847713D01*
X827595Y841405D02*
X838976Y830025D01*
X827595Y841405D02*
Y844405D01*
X847713Y830025D02*
X849000Y828738D01*
X826500Y845500D02*
X827595Y844405D01*
X847487Y828738D02*
X849000D01*
X861982D01*
X865964Y832720D01*
X879340D01*
X538480Y864870D02*
X565868D01*
X537900Y693746D02*
Y705300D01*
X508860Y711880D02*
X531320D01*
X563300Y116250D02*
Y166300D01*
X733671Y336671D01*
Y340321D01*
X739600Y346250D01*
X901850Y508500D01*
X537900Y693746D02*
X603347Y628299D01*
X718987D01*
X838786Y508500D01*
X901850D01*
X957500D01*
X414020Y806720D02*
X508860Y711880D01*
X608250Y264076D02*
X628778D01*
X608250D02*
Y270576D01*
X348750Y829666D02*
X372418D01*
X345750Y810666D02*
X372418D01*
X374650Y812898D02*
Y827434D01*
X372418Y810666D02*
X374650Y812898D01*
X372418Y829666D02*
X374650Y827434D01*
X307011Y827099D02*
X316018Y818092D01*
X298907Y830170D02*
X301978Y827099D01*
X316018Y812398D02*
X317750Y810666D01*
X301978Y827099D02*
X307011D01*
X316018Y812398D02*
Y818092D01*
X317750Y810666D02*
X320748D01*
X367012Y785114D02*
X388620Y806722D01*
X335280Y785114D02*
X367012D01*
X348750Y829666D02*
X365664Y846580D01*
X345750Y829666D02*
X348750D01*
X494323Y499712D02*
X494670Y499364D01*
X481140Y499712D02*
X494323D01*
X802500Y199500D02*
X805500D01*
Y190566D02*
Y199500D01*
X793894D02*
X802500D01*
X740160Y146300D02*
X761234D01*
X805500Y190566D01*
X791464Y201930D02*
X793894Y199500D01*
X791464Y201930D02*
Y215138D01*
X794826Y218500D01*
X805500D01*
X740160Y846580D02*
X741240Y845500D01*
X365664Y846580D02*
X414020D01*
X1005000Y652000D02*
Y666750D01*
X992513Y836262D02*
X1009000Y852750D01*
Y853000D01*
X991000Y836262D02*
X992513D01*
X955100Y826220D02*
X970325D01*
X976609Y832504D01*
X987242D01*
X991000Y836262D01*
X936000Y623000D02*
X942000Y617000D01*
Y610250D02*
Y617000D01*
X765000Y806720D02*
X825470D01*
X847487Y828738D01*
X613973Y525500D02*
X614100Y525627D01*
X639641Y525500D02*
X639641Y525500D01*
X614100Y525627D02*
Y574294D01*
X613973Y525500D02*
X639641D01*
X319000Y351250D02*
Y362700D01*
X320748Y701412D02*
Y799646D01*
X298918Y679582D02*
X320748Y701412D01*
Y799646D02*
Y808736D01*
X296418Y679582D02*
X298918D01*
X296418Y640456D02*
Y679582D01*
X272434Y616472D02*
X296418Y640456D01*
X272434Y613972D02*
Y616472D01*
X269454Y610992D02*
X272434Y613972D01*
X266954Y610992D02*
X269454D01*
X320748Y799646D02*
X335280Y785114D01*
D64*
X604000Y930000D02*
D03*
X548000D02*
D03*
X564000D02*
D03*
X588000D02*
D03*
X580000D02*
D03*
X572000D02*
D03*
X584000Y937000D02*
D03*
X592000D02*
D03*
X600000D02*
D03*
X568000D02*
D03*
X560000D02*
D03*
X552000D02*
D03*
D65*
X957500Y533900D02*
D03*
Y508500D02*
D03*
X173250Y508500D02*
D03*
Y533900D02*
D03*
D66*
X537900Y116250D02*
D03*
X588700D02*
D03*
X563300D02*
D03*
X614100D02*
D03*
D67*
X414020Y306700D02*
D03*
X414020Y768600D02*
D03*
X739600Y306700D02*
D03*
X738756Y768600D02*
D03*
X764156D02*
D03*
X738756Y743200D02*
D03*
X739600Y281300D02*
D03*
X765000Y306700D02*
D03*
X388620Y743200D02*
D03*
Y768600D02*
D03*
X388620Y306700D02*
D03*
Y281300D02*
D03*
D68*
X957500Y483100D02*
D03*
X173250Y483100D02*
D03*
D69*
X414020Y211000D02*
D03*
X414150Y677500D02*
D03*
X739600Y210764D02*
D03*
X739600Y677500D02*
D03*
X739600Y185364D02*
D03*
X739600Y652100D02*
D03*
Y702900D02*
D03*
X765000D02*
D03*
Y677500D02*
D03*
X739600Y236164D02*
D03*
X414150Y702900D02*
D03*
X414020Y236400D02*
D03*
X765000Y210764D02*
D03*
Y236164D02*
D03*
X388620Y211000D02*
D03*
Y185600D02*
D03*
X388750Y652100D02*
D03*
Y677500D02*
D03*
Y702900D02*
D03*
X388620Y236400D02*
D03*
D70*
X414020Y185600D02*
D03*
X414150Y652100D02*
D03*
X765000Y652100D02*
D03*
X765000Y185364D02*
D03*
D71*
X764156Y743200D02*
D03*
X414020Y743200D02*
D03*
X414020Y281300D02*
D03*
X765000Y281300D02*
D03*
D72*
X619300Y938500D02*
D03*
X532700D02*
D03*
X539200Y933500D02*
D03*
X612800D02*
D03*
X619300D02*
D03*
X532700D02*
D03*
D73*
X612000Y923500D02*
D03*
X540000D02*
D03*
D74*
X619300Y995500D02*
D03*
X532700D02*
D03*
M02*
