M48
;Layer_Color=9474304
;FILE_FORMAT=4:4
METRIC,LZ
;TYPE=PLATED
T01F00S00C0.2000
T02F00S00C0.3000
T03F00S00C0.4000
T04F00S00C0.6000
T06F00S00C1.0200
T07F00S00C1.0400
T08F00S00C1.1000
;TYPE=NON_PLATED
T09F00S00C0.8500
%
T01
X0058075Y00260826
X0059175
Y00273826
X0058075
Y00286826
X0059175
T02
X00359Y00111
X0100584Y00150754
X01005332Y0017145
X009725Y00197
X0097275Y0038925
X00912125Y00396
X008595Y0038975
X0080775Y003345
X0085375Y0027819
X00908Y0028375
X00922Y00264
X00935Y00273
X009025Y00325
X0082325Y0023175
X0084925Y0018625
X0086475Y001445
X00649Y0029825
X00556268Y00219
X006705Y00538936
X0047879Y0052705
X0048114Y00499712
X00302541Y00508708
X00302Y00533
X00301Y00483
X00231Y0039575
X00176Y00396
X00174Y00312
X00212Y0026
X00222Y00268
X00236Y00273
X0029Y0028475
X00295Y0031625
X0029Y00239
X00291Y00211
X0030425Y002055
X0032725Y002485
X0032125Y0015625
X0018Y0015475
X0014425Y0017275
X00143Y0020275
X0051Y00299
X00488Y00703
X005095Y0072975
X00493Y00748
X00488535Y00821286
X0053848Y0086487
X00531622Y00899668
X00361188Y00820166
X0029972Y00799338
X002921Y00792226
X00293116Y00770128
X00308864Y00784352
X00307594Y00732536
X0028194Y00723392
X00239522Y00735838
X00213868Y00741172
X0021463Y00768858
X00174017Y00826222
X00179701Y00836612
X00150114Y00866394
X0026969Y00864921
X0028425Y0082625
X0025908Y0062865
X00182118Y00615188
X00576Y00606
X00578659Y00808228
X00611564Y00807906
X00546Y008175
X0054737Y00874014
X00577277Y00898079
X00555941Y00925765
X00627126Y00898906
X0064425Y0075775
X0077631Y00836
X00821944Y00868934
X0083693Y00859536
X00862Y00817393
X00934Y00753
X00932389Y00740991
X009345Y006955
X00900706Y00696
X00857758Y00653796
X0086Y00611
X009125Y0061
X00936Y00623
X00969518Y00644906
X01005Y00652
X01016508Y00830834
X01009Y00853
X00969518Y00867918
T03
X00548Y0093
X00564
X00572
X0058
X00588
X00604
X006Y00937
X00592
X00584
X00568
X0056
X00552
T04
X005327Y009335
X005392
X006128
X006193
Y009385
X005327
T06
X0008427Y000796
Y00105
Y001304
X0011506Y000787
X0014046
X0016586
X0019126
X0021666
X0024206
X0026746
X0029286
X0031826
X0034366
X0036906
X0039446
X0041986
X0044526
X0041402Y001209
X0074016
X0073101Y000787
X0070561
X0075641
X0078181
X0080721
X0083261
X0085801
X0088341Y000787
X0090881Y000787
X0093421
X0095961
X0098501
X0101041
X0103581
X0106502Y000796
Y00105
Y001304
Y001558
Y001812
Y002066
Y00232
Y002574
Y002828
Y003082
Y003336
Y00359
Y003844
Y004098
Y004352
Y004606
Y00486
X00699262Y0049375
Y0051915
Y0046835
X006395Y00432562
X006141
X005887
X005633
X00613Y00335
X006384
X007396Y0034625
X00765
X00765Y003067
X007396
Y002813
X00765
X00765Y00236164
X007396
Y00210764
Y00185364
X00765
Y00210764
X0074016Y001463
X0041402
X0041402Y001856
Y00211
Y002364
X0038862
Y00211
Y001856
Y002813
X0041402
Y003067
X0038862
Y0034625
X0041402
X00442214Y0046835
Y0049375
Y0051915
X005125Y00432562
X005379
X0008427Y004352
Y004606
Y00486
Y004098
Y003844
Y00359
Y003336
Y003082
Y002828
Y002574
Y00232
Y002066
Y001812
Y001558
X0008427Y0054014
Y0056554
Y0059094
Y0061634
Y0064174
Y0066714
Y0069254
Y0071794
Y0074334
Y0076874
Y0079414
Y0081954
Y0084494
Y0087034
Y0089574
Y0092114
X0041402Y0087198
Y0084658
Y0080672
X0038862
Y007686
X0041402
Y007432
X0038862
X0038875Y007029
X0041415
Y006775
Y006521
X0038875
Y006775
X005379Y007053
Y007307
X005379Y00574294
X005125
X00442214Y0054455
X005633Y00574294
X005887
X006141
X006395
X00699262Y0054455
X007396Y006521
Y006775
Y007029
X00765
Y006775
Y006521
X00764156Y007432
Y007686
X00738756
Y007432
X007396Y0080672
X00765
X0074016Y0084658
Y0087198
X006141Y007307
X005887
X005633
Y007053
X005887
X006141
X0106502Y0071794
Y0069254
Y0066714
Y0064174
Y0061634
Y0059094
Y0056554
Y0054014
Y0074334
Y0076874
Y0079414
Y0081954
Y0084494
Y0087034
Y0089574
Y0092114
Y0094654
X0103581Y0094765
X0101041
X0098501
X0095961
X0093421
X0090881
X0088341
X0085801
X0083261
X0080721
X0078181
X0075641
X0073101
X0070561
X0044526
X0041986
X0039446
X0036906
X0034366
X0031826
X0029286
X0026746
X0024206
X0021666
X0019126
X0016586
X0014046
X0011506
X0008427Y0094654
T07
X009575Y004831
Y005085
Y005339
X0017325Y005339
Y005085
Y004831
T08
X005379Y0011625
X005633
X005887
X006141
T09
X0054Y009235
X00612
M30
