G04*
G04 #@! TF.GenerationSoftware,Altium Limited,Altium Designer,25.8.1 (18)*
G04*
G04 Layer_Color=8421504*
%FSLAX44Y44*%
%MOMM*%
G71*
G04*
G04 #@! TF.SameCoordinates,C16DD730-3532-4E92-A171-7A7C9FC4E97E*
G04*
G04*
G04 #@! TF.FilePolarity,Positive*
G04*
G01*
G75*
%ADD20R,1.3500X1.6500*%
%ADD21R,1.3500X0.8500*%
%ADD22R,0.8000X0.8000*%
%ADD23R,1.4750X0.4500*%
%ADD24R,1.3082X1.0057*%
%ADD25R,1.2000X0.6000*%
%ADD26R,2.0000X1.4000*%
%ADD27R,0.3200X0.7000*%
G04:AMPARAMS|DCode=28|XSize=2mm|YSize=0.4mm|CornerRadius=0.2mm|HoleSize=0mm|Usage=FLASHONLY|Rotation=90.000|XOffset=0mm|YOffset=0mm|HoleType=Round|Shape=RoundedRectangle|*
%AMROUNDEDRECTD28*
21,1,2.0000,0.0000,0,0,90.0*
21,1,1.6000,0.4000,0,0,90.0*
1,1,0.4000,0.0000,0.8000*
1,1,0.4000,0.0000,-0.8000*
1,1,0.4000,0.0000,-0.8000*
1,1,0.4000,0.0000,0.8000*
%
%ADD28ROUNDEDRECTD28*%
%ADD29R,1.0057X1.3082*%
G04:AMPARAMS|DCode=30|XSize=1.45mm|YSize=0.3mm|CornerRadius=0.0495mm|HoleSize=0mm|Usage=FLASHONLY|Rotation=0.000|XOffset=0mm|YOffset=0mm|HoleType=Round|Shape=RoundedRectangle|*
%AMROUNDEDRECTD30*
21,1,1.4500,0.2010,0,0,0.0*
21,1,1.3510,0.3000,0,0,0.0*
1,1,0.0990,0.6755,-0.1005*
1,1,0.0990,-0.6755,-0.1005*
1,1,0.0990,-0.6755,0.1005*
1,1,0.0990,0.6755,0.1005*
%
%ADD30ROUNDEDRECTD30*%
%ADD31R,1.7780X0.5334*%
%ADD32R,0.8500X1.3500*%
%ADD33R,0.4000X2.0000*%
%ADD34R,1.2000X0.9200*%
D20*
X586268Y273828D02*
D03*
D21*
X942000Y610250D02*
D03*
Y593750D02*
D03*
X942000Y395750D02*
D03*
Y412250D02*
D03*
X883000Y395750D02*
D03*
Y412250D02*
D03*
X856000Y346250D02*
D03*
X659000Y907750D02*
D03*
X639000Y907750D02*
D03*
X483000Y905750D02*
D03*
X538146Y249418D02*
D03*
X518922Y862763D02*
D03*
Y879263D02*
D03*
X615696Y864494D02*
D03*
Y880994D02*
D03*
X515794Y283444D02*
D03*
X538146Y265918D02*
D03*
X515794Y266944D02*
D03*
X883000Y594490D02*
D03*
Y610990D02*
D03*
X1005000Y683250D02*
D03*
Y666750D02*
D03*
X659000Y924250D02*
D03*
X483000Y922250D02*
D03*
X639000Y924250D02*
D03*
X856000Y329750D02*
D03*
X296418Y696080D02*
D03*
Y679580D02*
D03*
X196340Y611500D02*
D03*
Y595000D02*
D03*
X266950Y610990D02*
D03*
Y594490D02*
D03*
X266950Y412250D02*
D03*
Y395750D02*
D03*
X196340Y412250D02*
D03*
Y395750D02*
D03*
X319000Y351250D02*
D03*
Y334750D02*
D03*
D22*
X925000Y412750D02*
D03*
Y396750D02*
D03*
X900000Y412000D02*
D03*
X925000Y610000D02*
D03*
X900000D02*
D03*
X900000Y396000D02*
D03*
X247650Y609980D02*
D03*
X215650Y610996D02*
D03*
X215650Y396000D02*
D03*
X247650D02*
D03*
X925000Y594000D02*
D03*
X900000D02*
D03*
X215650Y412000D02*
D03*
X247650Y593980D02*
D03*
X215650Y594996D02*
D03*
X247650Y412000D02*
D03*
D23*
X879340Y193500D02*
D03*
X955100Y187000D02*
D03*
X955100Y852220D02*
D03*
X879340Y839220D02*
D03*
X955100Y819720D02*
D03*
X879340Y200000D02*
D03*
X955100Y180500D02*
D03*
X879340Y167500D02*
D03*
X269690Y852220D02*
D03*
X193930Y839220D02*
D03*
X269690Y819720D02*
D03*
X269690Y180500D02*
D03*
X193930Y200000D02*
D03*
Y167500D02*
D03*
X879340Y741720D02*
D03*
Y748220D02*
D03*
Y754720D02*
D03*
Y761220D02*
D03*
Y767720D02*
D03*
Y774220D02*
D03*
Y787220D02*
D03*
Y793720D02*
D03*
Y800220D02*
D03*
Y806720D02*
D03*
Y813220D02*
D03*
Y819720D02*
D03*
Y826220D02*
D03*
Y845720D02*
D03*
Y852220D02*
D03*
X955100Y754720D02*
D03*
Y774220D02*
D03*
Y793720D02*
D03*
Y839220D02*
D03*
Y806720D02*
D03*
Y767720D02*
D03*
Y787220D02*
D03*
Y800220D02*
D03*
Y832720D02*
D03*
Y761220D02*
D03*
Y780720D02*
D03*
Y813220D02*
D03*
Y845720D02*
D03*
Y741720D02*
D03*
Y748220D02*
D03*
X879340Y832720D02*
D03*
X955100Y826220D02*
D03*
Y735220D02*
D03*
X879340Y780720D02*
D03*
Y735220D02*
D03*
X879340Y174000D02*
D03*
Y180500D02*
D03*
Y187000D02*
D03*
Y206500D02*
D03*
Y213000D02*
D03*
Y219500D02*
D03*
Y226000D02*
D03*
Y232500D02*
D03*
Y239000D02*
D03*
Y245500D02*
D03*
Y252000D02*
D03*
Y258500D02*
D03*
Y265000D02*
D03*
Y271500D02*
D03*
Y278000D02*
D03*
Y284500D02*
D03*
X955100D02*
D03*
Y278000D02*
D03*
Y271500D02*
D03*
Y265000D02*
D03*
Y258500D02*
D03*
Y252000D02*
D03*
Y245500D02*
D03*
Y239000D02*
D03*
Y232500D02*
D03*
Y226000D02*
D03*
Y219500D02*
D03*
Y213000D02*
D03*
Y206500D02*
D03*
Y200000D02*
D03*
Y193500D02*
D03*
Y174000D02*
D03*
Y167500D02*
D03*
X193930Y219500D02*
D03*
Y258500D02*
D03*
Y180500D02*
D03*
Y226000D02*
D03*
Y245500D02*
D03*
Y252000D02*
D03*
Y213000D02*
D03*
X269690Y271500D02*
D03*
X193930Y174000D02*
D03*
Y206500D02*
D03*
X269690Y284500D02*
D03*
X193930Y239000D02*
D03*
Y265000D02*
D03*
X269690Y278000D02*
D03*
X193930Y187000D02*
D03*
Y232500D02*
D03*
Y284500D02*
D03*
X193930Y852220D02*
D03*
Y845720D02*
D03*
Y832720D02*
D03*
Y826220D02*
D03*
Y819720D02*
D03*
Y813220D02*
D03*
Y806720D02*
D03*
Y800220D02*
D03*
Y793720D02*
D03*
Y787220D02*
D03*
Y774220D02*
D03*
Y767720D02*
D03*
Y761220D02*
D03*
Y754720D02*
D03*
Y748220D02*
D03*
Y741720D02*
D03*
X269690D02*
D03*
Y748220D02*
D03*
Y754720D02*
D03*
Y761220D02*
D03*
Y767720D02*
D03*
Y774220D02*
D03*
Y780720D02*
D03*
Y787220D02*
D03*
Y793720D02*
D03*
Y800220D02*
D03*
Y806720D02*
D03*
Y813220D02*
D03*
Y826220D02*
D03*
Y832720D02*
D03*
Y839220D02*
D03*
Y845720D02*
D03*
X193930Y735220D02*
D03*
Y780720D02*
D03*
X269690Y735220D02*
D03*
X193930Y193500D02*
D03*
Y271500D02*
D03*
Y278000D02*
D03*
X269690Y265000D02*
D03*
Y258500D02*
D03*
Y252000D02*
D03*
Y245500D02*
D03*
Y239000D02*
D03*
Y232500D02*
D03*
Y226000D02*
D03*
Y219500D02*
D03*
Y213000D02*
D03*
Y206500D02*
D03*
Y200000D02*
D03*
Y193500D02*
D03*
Y187000D02*
D03*
Y174000D02*
D03*
Y167500D02*
D03*
D24*
X985810Y185447D02*
D03*
X852000Y200738D02*
D03*
X849000Y843262D02*
D03*
X991000Y821738D02*
D03*
X980000Y667738D02*
D03*
X593000Y879262D02*
D03*
X985810Y170922D02*
D03*
X830000Y345262D02*
D03*
X630856Y280679D02*
D03*
X852000Y215262D02*
D03*
X566000Y879263D02*
D03*
X507000Y906737D02*
D03*
X162560Y852574D02*
D03*
X299970Y815698D02*
D03*
X295000Y350263D02*
D03*
X299970Y176782D02*
D03*
X162250Y202762D02*
D03*
X566000Y864737D02*
D03*
X593000Y864738D02*
D03*
X630856Y266154D02*
D03*
X980000Y682262D02*
D03*
X849000Y828738D02*
D03*
X991000Y836262D02*
D03*
X507000Y921263D02*
D03*
X830000Y330738D02*
D03*
X162560Y838050D02*
D03*
X299970Y830222D02*
D03*
X299970Y191306D02*
D03*
X162250Y188237D02*
D03*
X295000Y335737D02*
D03*
D25*
X830500Y218500D02*
D03*
X798500Y836000D02*
D03*
X805500Y209000D02*
D03*
X345750Y820166D02*
D03*
X345750Y184000D02*
D03*
X823500Y826500D02*
D03*
X798500D02*
D03*
Y845500D02*
D03*
X823500D02*
D03*
X830500Y199500D02*
D03*
X805500D02*
D03*
Y218500D02*
D03*
X345750Y810666D02*
D03*
Y829666D02*
D03*
X320750D02*
D03*
Y810666D02*
D03*
X320750Y174500D02*
D03*
Y193500D02*
D03*
X345750D02*
D03*
Y174500D02*
D03*
D26*
X882220Y655870D02*
D03*
X952220D02*
D03*
Y365000D02*
D03*
X882220D02*
D03*
X266810Y655870D02*
D03*
X196810D02*
D03*
X266810Y365000D02*
D03*
X196810D02*
D03*
X882220Y695870D02*
D03*
X952220D02*
D03*
Y325000D02*
D03*
X882220D02*
D03*
X266810Y695870D02*
D03*
X196810D02*
D03*
X266810Y325000D02*
D03*
X196810D02*
D03*
D27*
X603500Y916900D02*
D03*
X548500D02*
D03*
X563500D02*
D03*
X588500D02*
D03*
X573500D02*
D03*
X578500D02*
D03*
X598500D02*
D03*
X593500D02*
D03*
X583500D02*
D03*
X568500D02*
D03*
X558500D02*
D03*
X553500D02*
D03*
D28*
X598750Y841000D02*
D03*
X579250D02*
D03*
X553250D02*
D03*
X546750D02*
D03*
X572750Y771000D02*
D03*
X533750Y841000D02*
D03*
X540250D02*
D03*
X559750D02*
D03*
X566250D02*
D03*
X572750D02*
D03*
X585750D02*
D03*
X592250D02*
D03*
X605250D02*
D03*
X611750D02*
D03*
X618250D02*
D03*
Y771000D02*
D03*
X611750D02*
D03*
X605250D02*
D03*
X598750D02*
D03*
X592250D02*
D03*
X585750D02*
D03*
X579250D02*
D03*
X566250D02*
D03*
X559750D02*
D03*
X553250D02*
D03*
X546750D02*
D03*
X540250D02*
D03*
D29*
X654165Y525500D02*
D03*
X307744Y748538D02*
D03*
X575127Y309484D02*
D03*
X560602D02*
D03*
X639641Y525500D02*
D03*
X293220Y748538D02*
D03*
D30*
X608250Y283576D02*
D03*
Y270576D02*
D03*
Y264076D02*
D03*
X564250Y283576D02*
D03*
Y277076D02*
D03*
Y270576D02*
D03*
Y264076D02*
D03*
X608250Y277076D02*
D03*
D31*
X538027Y487400D02*
D03*
Y512800D02*
D03*
Y525500D02*
D03*
X613973D02*
D03*
Y512800D02*
D03*
Y500100D02*
D03*
Y487400D02*
D03*
X538027Y500100D02*
D03*
D32*
X580178Y240142D02*
D03*
X563678D02*
D03*
X511170Y526542D02*
D03*
X494670D02*
D03*
X511170Y499364D02*
D03*
X494670D02*
D03*
D33*
X533750Y771000D02*
D03*
D34*
X538654Y281068D02*
D03*
Y297768D02*
D03*
M02*
